<svg id="Layer_1" enable-background="new 0 0 512 512" viewBox="0 0 512 512" xmlns="http://www.w3.org/2000/svg" xmlns:xlink="http://www.w3.org/1999/xlink"><linearGradient id="SVGID_1_" gradientUnits="userSpaceOnUse" x1="-13.353" x2="569.936" y1="67.169" y2="497.557"><stop offset="0" stop-color="#b3dafe"/><stop offset="1" stop-color="#01d0fb"/></linearGradient><linearGradient id="lg1"><stop offset="0" stop-color="#08a9f1" stop-opacity="0"/><stop offset="1" stop-color="#08a9f1"/></linearGradient><linearGradient id="SVGID_00000175312434470891500360000001228229893657841069_" gradientUnits="userSpaceOnUse" x1="421.141" x2="459.602" xlink:href="#lg1" y1="265.915" y2="265.915"/><linearGradient id="SVGID_00000016052451433618335450000013602012026765668502_" gradientUnits="userSpaceOnUse" x1="362.497" x2="311.53" xlink:href="#lg1" y1="86.053" y2="78.031"/><linearGradient id="SVGID_00000063632427308859131950000018338297682771964042_" gradientUnits="userSpaceOnUse" x1="405.805" x2="301.04" xlink:href="#lg1" y1="288.351" y2="218.271"/><linearGradient id="SVGID_00000078034386863589969370000015275570153809313171_" gradientUnits="userSpaceOnUse" x1="256" x2="256" xlink:href="#lg1" y1="473.735" y2="511.608"/><linearGradient id="lg2"><stop offset="0" stop-color="#f5fbff"/><stop offset="1" stop-color="#dbd5ef"/></linearGradient><linearGradient id="SVGID_00000138542634188958931870000000572598301133713805_" gradientUnits="userSpaceOnUse" x1="151.788" x2="440.259" xlink:href="#lg2" y1="160.164" y2="448.636"/><linearGradient id="lg3"><stop offset="0" stop-color="#dbd5ef" stop-opacity="0"/><stop offset=".2853" stop-color="#d9d2ee" stop-opacity=".285"/><stop offset=".4739" stop-color="#d4c9e9" stop-opacity=".474"/><stop offset=".6346" stop-color="#cbbae2" stop-opacity=".635"/><stop offset=".7795" stop-color="#bfa5d7" stop-opacity=".78"/><stop offset=".9126" stop-color="#af8aca" stop-opacity=".913"/><stop offset="1" stop-color="#a274bf"/></linearGradient><linearGradient id="SVGID_00000052105323234391248800000004719624267144432562_" gradientUnits="userSpaceOnUse" x1="346.474" x2="296.328" xlink:href="#lg3" y1="135.975" y2="46.826"/><linearGradient id="SVGID_00000017509541400585883960000005264731922374059444_" gradientUnits="userSpaceOnUse" x1="392.826" x2="424.806" xlink:href="#lg3" y1="264.377" y2="264.377"/><linearGradient id="SVGID_00000093879650809465810840000006830313246715053724_" gradientUnits="userSpaceOnUse" x1="355.437" x2="262.764" xlink:href="#lg3" y1="413.599" y2="252.491"/><linearGradient id="SVGID_00000095318386237626430030000014463149523391207601_" gradientUnits="userSpaceOnUse" x1="256" x2="256" xlink:href="#lg3" y1="442.422" y2="482.12"/><linearGradient id="SVGID_00000174567547439037167640000011774282720444013184_" gradientUnits="userSpaceOnUse" x1="256" x2="256" xlink:href="#lg3" y1="88.327" y2="65.576"/><linearGradient id="SVGID_00000128445903570630293560000003012575439842024577_" gradientUnits="userSpaceOnUse" x1="232.217" x2="206.731" xlink:href="#lg3" y1="69.231" y2="69.231"/><linearGradient id="SVGID_00000052794380930974131970000002605034088712166274_" gradientUnits="userSpaceOnUse" x1="256" x2="256" y1="90.923" y2="103.664"><stop offset="0" stop-color="#5a5a5a"/><stop offset="1" stop-color="#444"/></linearGradient><linearGradient id="lg4"><stop offset="0" stop-color="#433f43" stop-opacity="0"/><stop offset=".3444" stop-color="#403c40" stop-opacity=".344"/><stop offset=".6223" stop-color="#363336" stop-opacity=".622"/><stop offset=".8763" stop-color="#252425" stop-opacity=".876"/><stop offset="1" stop-color="#1a1a1a"/></linearGradient><linearGradient id="SVGID_00000011741976209572266510000009996103878365068478_" gradientUnits="userSpaceOnUse" x1="256" x2="256" xlink:href="#lg4" y1="92.338" y2="102.249"/><linearGradient id="SVGID_00000044884264538839455820000011991697935590585262_" gradientUnits="userSpaceOnUse" x1="256" x2="256" xlink:href="#lg4" y1="80.776" y2="64.259"/><linearGradient id="SVGID_00000063602957430015619790000002992276443566097855_" gradientUnits="userSpaceOnUse" x1="299.976" x2="316.965" xlink:href="#lg4" y1="75.725" y2="82.568"/><linearGradient id="lg5"><stop offset="0" stop-color="#fef0ae"/><stop offset="1" stop-color="#fac600"/></linearGradient><linearGradient id="SVGID_00000150102595289539999060000015481867293938544295_" gradientUnits="userSpaceOnUse" x1="256" x2="256" xlink:href="#lg5" y1="16.517" y2="65.453"/><linearGradient id="SVGID_00000176754878637449673000000010775317167845354430_" gradientUnits="userSpaceOnUse" x1="256" x2="256" xlink:href="#lg5" y1="58.518" y2="10.269"/><linearGradient id="lg6"><stop offset="0" stop-color="#fe9738" stop-opacity="0"/><stop offset="1" stop-color="#fe9738"/></linearGradient><linearGradient id="SVGID_00000167364654498530757560000006228649228451370410_" gradientUnits="userSpaceOnUse" x1="256" x2="256" xlink:href="#lg6" y1="52.383" y2="67.736"/><linearGradient id="SVGID_00000065787775355821918030000012158144426408314506_" gradientUnits="userSpaceOnUse" x1="298.497" x2="330.587" xlink:href="#lg6" y1="35.646" y2="39.421"/><linearGradient id="lg7"><stop offset="0" stop-color="#fea613"/><stop offset="1" stop-color="#c4573a"/></linearGradient><linearGradient id="SVGID_00000108292684656052743350000005572842510488993930_" gradientUnits="userSpaceOnUse" x1="140.995" x2="370.275" xlink:href="#lg7" y1="163.843" y2="347.637"/><linearGradient id="lg8"><stop offset="0" stop-color="#c4573a" stop-opacity="0"/><stop offset=".235" stop-color="#be5539" stop-opacity=".235"/><stop offset=".539" stop-color="#ae4e35" stop-opacity=".539"/><stop offset=".8794" stop-color="#934330" stop-opacity=".879"/><stop offset="1" stop-color="#883f2e"/></linearGradient><linearGradient id="SVGID_00000173869501171407886210000007776804088295009686_" gradientUnits="userSpaceOnUse" x1="346.563" x2="391.158" xlink:href="#lg8" y1="265.59" y2="265.59"/><linearGradient id="SVGID_00000054262477972483310680000002519524730458966435_" gradientUnits="userSpaceOnUse" x1="180.317" x2="274.303" xlink:href="#lg8" y1="241.52" y2="357.784"/><linearGradient id="SVGID_00000155124454829699959640000015416966538460151978_" gradientUnits="userSpaceOnUse" x1="187.374" x2="181.805" xlink:href="#lg8" y1="322.892" y2="351.668"/><linearGradient id="SVGID_00000108992242642045100620000006859920587086340267_" gradientTransform="matrix(-1 0 0 1 309.97 0)" gradientUnits="userSpaceOnUse" x1="-14.656" x2="-20.226" xlink:href="#lg8" y1="322.892" y2="351.668"/><linearGradient id="SVGID_00000015337585426638141740000004683086092295307173_" gradientUnits="userSpaceOnUse" x1="255.125" x2="258.606" xlink:href="#lg7" y1="166.369" y2="212.782"/><linearGradient id="SVGID_00000156570065302584270380000004464156620599027347_" gradientUnits="userSpaceOnUse" x1="216.035" x2="218.588" xlink:href="#lg8" y1="168.768" y2="179.443"/><linearGradient id="SVGID_00000182509852883227884300000008425275204127150513_" gradientUnits="userSpaceOnUse" x1="232.943" x2="251.044" xlink:href="#lg5" y1="158.144" y2="202.237"/><linearGradient id="SVGID_00000057851465889974408440000013797982796694546349_" gradientUnits="userSpaceOnUse" x1="203.026" x2="203.026" xlink:href="#lg6" y1="184.992" y2="195.153"/><linearGradient id="SVGID_00000172430194736168856350000008811487622574619788_" gradientUnits="userSpaceOnUse" x1="188.991" x2="196.015" xlink:href="#lg6" y1="213.173" y2="213.173"/><linearGradient id="SVGID_00000143611394431145869960000011174896640324259254_" gradientUnits="userSpaceOnUse" x1="182.47" x2="181.077" xlink:href="#lg6" y1="228.22" y2="236.11"/><linearGradient id="SVGID_00000122712668397810132720000005762810996738724003_" gradientUnits="userSpaceOnUse" x1="149.042" x2="181.341" xlink:href="#lg2" y1="280.138" y2="335.765"/><linearGradient id="SVGID_00000073722865043469010980000008679398070394718638_" gradientUnits="userSpaceOnUse" x1="165.343" x2="162.876" xlink:href="#lg3" y1="314.473" y2="325.239"/><linearGradient id="SVGID_00000035512195986953558680000012607321977995171469_" gradientUnits="userSpaceOnUse" x1="186.312" x2="194.719" xlink:href="#lg3" y1="311.862" y2="311.862"/><linearGradient id="SVGID_00000038393796687829110790000011002112610076697783_" gradientUnits="userSpaceOnUse" x1="334.833" x2="274.648" xlink:href="#lg8" y1="317.565" y2="259.544"/><linearGradient id="SVGID_00000142871151503708581780000018049029812625774249_" gradientUnits="userSpaceOnUse" x1="252.21" x2="267.813" y1="220.299" y2="301.564"><stop offset="0" stop-color="#bbec6c"/><stop offset=".1974" stop-color="#b5e665"/><stop offset=".4799" stop-color="#a5d552"/><stop offset=".8118" stop-color="#8abb33"/><stop offset="1" stop-color="#78a91f"/></linearGradient><linearGradient id="lg9"><stop offset="0" stop-color="#334c0f" stop-opacity="0"/><stop offset=".3197" stop-color="#344c12" stop-opacity=".32"/><stop offset=".5654" stop-color="#374a1c" stop-opacity=".565"/><stop offset=".7856" stop-color="#3c482c" stop-opacity=".786"/><stop offset=".9909" stop-color="#444443" stop-opacity=".991"/><stop offset="1" stop-color="#444"/></linearGradient><linearGradient id="SVGID_00000031181018283456892880000000277197160531923901_" gradientUnits="userSpaceOnUse" x1="267.327" x2="289.347" xlink:href="#lg9" y1="251.366" y2="273.386"/><linearGradient id="SVGID_00000070811237720728710120000000437367496309620368_" gradientUnits="userSpaceOnUse" x1="208.17" x2="197.454" xlink:href="#lg9" y1="287.873" y2="298.59"/><linearGradient id="SVGID_00000130633709674080342850000012843356500165197725_" gradientUnits="userSpaceOnUse" x1="-218.587" x2="219.829" xlink:href="#lg3" y1="-36.942" y2="476.326"/><linearGradient id="SVGID_00000057867444891868834390000003624231232440619932_" gradientUnits="userSpaceOnUse" x1="-205.168" x2="233.248" xlink:href="#lg3" y1="-48.403" y2="464.864"/><linearGradient id="SVGID_00000036221234373402861100000014665437425954233262_" gradientUnits="userSpaceOnUse" x1="-226.381" x2="212.034" xlink:href="#lg3" y1="-30.284" y2="482.984"/><g><g><g><path d="m442.152 512h-372.304c-10.424 0-18.874-8.45-18.874-18.874v-454.422c0-10.424 8.45-18.874 18.874-18.874h372.304c10.424 0 18.874 8.45 18.874 18.874v454.421c0 10.425-8.45 18.875-18.874 18.875z" fill="url(#SVGID_1_)"/></g><path d="m442.152 19.83h-183.822v492.17h183.822c10.424 0 18.874-8.45 18.874-18.874v-454.422c0-10.424-8.45-18.874-18.874-18.874z" fill="url(#SVGID_00000175312434470891500360000001228229893657841069_)"/><path d="m442.152 19.83h-183.822v128.824h202.696v-109.95c0-10.424-8.45-18.874-18.874-18.874z" fill="url(#SVGID_00000016052451433618335450000013602012026765668502_)"/><path d="m442.152 512c10.424 0 18.874-8.45 18.874-18.874v-402.51l-40.121-40.121h-51.439v461.505z" fill="url(#SVGID_00000063632427308859131950000018338297682771964042_)"/><path d="m50.974 188.295v304.831c0 10.424 8.45 18.874 18.874 18.874h372.304c10.424 0 18.874-8.45 18.874-18.874v-304.831z" fill="url(#SVGID_00000078034386863589969370000015275570153809313171_)"/><g><path d="m411.576 482.191h-311.152c-7.51 0-13.598-6.088-13.598-13.598v-408.432c0-7.51 6.088-13.598 13.598-13.598h311.152c7.51 0 13.598 6.088 13.598 13.598v408.432c0 7.51-6.088 13.598-13.598 13.598z" fill="url(#SVGID_00000138542634188958931870000000572598301133713805_)"/></g><path d="m411.576 46.562h-100.807v23.141c0 13.413-10.874 24.287-24.287 24.287h-84.291l-1.719 1.719 224.702 224.702v-260.25c0-7.51-6.088-13.599-13.598-13.599z" fill="url(#SVGID_00000052105323234391248800000004719624267144432562_)"/><path d="m411.576 46.562h-85.998v435.628h85.998c7.51 0 13.598-6.088 13.598-13.598v-408.431c0-7.51-6.088-13.599-13.598-13.599z" fill="url(#SVGID_00000017509541400585883960000005264731922374059444_)"/><path d="m383.824 178.041-255.648 155.918 148.232 148.232h135.169c7.51 0 13.598-6.088 13.598-13.598v-249.202z" fill="url(#SVGID_00000093879650809465810840000006830313246715053724_)"/><path d="m86.826 368.803v99.79c0 7.51 6.088 13.598 13.598 13.598h311.152c7.51 0 13.598-6.088 13.598-13.598v-99.79z" fill="url(#SVGID_00000095318386237626430030000014463149523391207601_)"/><path d="m201.231 44.472h109.537v49.518h-109.537z" fill="url(#SVGID_00000174567547439037167640000011774282720444013184_)"/><path d="m201.231 44.472h109.537v49.518h-109.537z" fill="url(#SVGID_00000128445903570630293560000003012575439842024577_)"/><g><path d="m290.804 104.151h-69.608c-16.141 0-29.274-13.132-29.274-29.273v-37.65h128.155v37.65c0 16.141-13.131 29.273-29.273 29.273zm-83.987-52.029v22.755c0 7.928 6.451 14.378 14.379 14.378h69.608c7.928 0 14.378-6.45 14.378-14.378v-22.755z" fill="url(#SVGID_00000052794380930974131970000002605034088712166274_)"/></g><g><path d="m290.804 104.151h-69.608c-16.141 0-29.274-13.132-29.274-29.273v-37.65h128.155v37.65c0 16.141-13.131 29.273-29.273 29.273zm-83.987-52.029v22.755c0 7.928 6.451 14.378 14.379 14.378h69.608c7.928 0 14.378-6.45 14.378-14.378v-22.755z" fill="url(#SVGID_00000011741976209572266510000009996103878365068478_)"/></g><g><path d="m290.804 104.151h-69.608c-16.141 0-29.274-13.132-29.274-29.273v-37.65h128.155v37.65c0 16.141-13.131 29.273-29.273 29.273zm-83.987-52.029v22.755c0 7.928 6.451 14.378 14.379 14.378h69.608c7.928 0 14.378-6.45 14.378-14.378v-22.755z" fill="url(#SVGID_00000044884264538839455820000011991697935590585262_)"/></g><path d="m254.869 52.122h50.313v22.755c0 7.928-6.45 14.378-14.378 14.378h-35.935v14.895h35.935c16.141 0 29.273-13.132 29.273-29.273v-37.65h-65.208z" fill="url(#SVGID_00000063602957430015619790000002992276443566097855_)"/><g><g><path d="m329.372 34.307c0 9.044-1.758 17.239-4.618 23.16-2.84 5.921-6.782 9.594-11.131 9.594h-115.246c-8.699 0-15.749-14.665-15.749-32.754 0-7.745 1.301-14.965 3.515-20.637 2.214-5.684 5.342-9.818 8.986-11.417l4.113-1.805c1.356-.595 2.832-.597 4.189-.007 34.665 15.203 70.473 15.203 105.138 0 1.357-.591 2.833-.588 4.189.007l4.113 1.805c7.288 3.185 12.501 16.564 12.501 32.054z" fill="url(#SVGID_00000150102595289539999060000015481867293938544295_)"/></g><g><path d="m297.36 37.743c0 5.098-.991 9.717-2.603 13.055-1.601 3.338-3.823 5.408-6.275 5.408h-64.964c-4.903 0-8.878-8.267-8.878-18.463 0-4.366.733-8.436 1.982-11.633 1.248-3.204 3.011-5.535 5.066-6.436l2.318-1.017c.764-.335 1.596-.337 2.361-.004 19.541 8.57 39.725 8.57 59.266 0 .765-.333 1.597-.332 2.361.004l2.318 1.017c4.109 1.796 7.048 9.338 7.048 18.069z" fill="url(#SVGID_00000176754878637449673000000010775317167845354430_)"/></g><path d="m182.628 34.307c0 18.088 7.05 32.754 15.749 32.754h115.247c4.349 0 8.291-3.673 11.131-9.594 2.86-5.921 4.618-14.116 4.618-23.16 0-2.041-.093-4.043-.267-5.992h-146.209c-.173 1.95-.269 3.951-.269 5.992z" fill="url(#SVGID_00000167364654498530757560000006228649228451370410_)"/><path d="m316.87 2.253-4.113-1.805c-1.356-.595-2.832-.597-4.189-.007-19.277 8.454-38.907 12.2-58.497 11.251v55.368h63.552c4.349 0 8.291-3.673 11.131-9.594 2.86-5.921 4.618-14.116 4.618-23.16 0-15.489-5.213-28.868-12.502-32.053z" fill="url(#SVGID_00000065787775355821918030000012158144426408314506_)"/></g></g><g><g><g><path d="m387.536 186.752v138.495c0 5.619-3.867 10.502-9.336 11.791l-119.42 28.172c-1.83.43-3.731.43-5.56 0l-119.419-28.172c-5.469-1.289-9.336-6.172-9.336-11.791v-138.495c0-3.379 1.4-6.485 3.698-8.711h255.662v-.013c2.311 2.227 3.711 5.339 3.711 8.724z" fill="url(#SVGID_00000108292684656052743350000005572842510488993930_)"/><path d="m383.824 178.041h-73.928v175.111l68.302-16.113c5.469-1.289 9.336-6.172 9.336-11.791v-138.496c0-3.386-1.4-6.498-3.711-8.724v.013z" fill="url(#SVGID_00000173869501171407886210000007776804088295009686_)"/><path d="m256 178.041v187.488c-.931 0-1.862-.104-2.78-.319l-119.419-28.172c-5.469-1.289-9.336-6.172-9.336-11.791v-138.495c0-3.379 1.4-6.485 3.698-8.711z" fill="url(#SVGID_00000054262477972483310680000002519524730458966435_)"/><path d="m256 280.142v85.388c-.931 0-1.862-.104-2.78-.319l-119.419-28.172c-5.469-1.289-9.336-6.172-9.336-11.791v-74.528l118.111 27.859c4.413 1.042 8.919 1.563 13.424 1.563z" fill="url(#SVGID_00000155124454829699959640000015416966538460151978_)"/><path d="m256 280.142v85.388c.931 0 1.862-.104 2.78-.319l119.419-28.172c5.469-1.289 9.336-6.172 9.336-11.791v-74.528l-118.111 27.859c-4.413 1.042-8.919 1.563-13.424 1.563z" fill="url(#SVGID_00000108992242642045100620000006859920587086340267_)"/><path d="m383.824 178.041-120.825 28.504c-4.603 1.087-9.395 1.087-13.998 0l-120.825-28.504c1.53-1.471 3.444-2.565 5.619-3.08l119.425-28.171c1.829-.43 3.731-.43 5.56 0l44.592 10.521v5.371h22.781l52.053 12.279c2.174.515 4.088 1.609 5.618 3.08z" fill="url(#SVGID_00000015337585426638141740000004683086092295307173_)"/><path d="m303.372 157.311v5.371l-120.155 28.348-55.041-12.989c1.53-1.471 3.444-2.565 5.619-3.08l119.425-28.171c1.829-.43 3.731-.43 5.56 0z" fill="url(#SVGID_00000156570065302584270380000004464156620599027347_)"/></g><g><path d="m303.372 157.304-129.02 30.44c-1.476.348-2.519 1.666-2.52 3.183l-.009 40.468c0 .882.606 1.648 1.465 1.85l18.986 4.475c1.193.281 2.337-.624 2.337-1.85v-39.797c0-1.384.952-2.586 2.298-2.904l129.242-30.489z" fill="url(#SVGID_00000182509852883227884300000008425275204127150513_)"/><path d="m233.213 184.61-36.304 8.562c-.534.124-1.003.397-1.38.755l-22.69-5.352c.41-.397.925-.69 1.51-.833l36.069-8.509z" fill="url(#SVGID_00000057851465889974408440000013797982796694546349_)"/><path d="m172.839 188.575 22.683 5.352c-.566.547-.911 1.315-.911 2.149v39.793c0 1.23-1.146 2.135-2.337 1.849l-18.985-4.473c-.859-.202-1.465-.97-1.465-1.849l.006-40.47c0-.918.384-1.758 1.009-2.351z" fill="url(#SVGID_00000172430194736168856350000008811487622574619788_)"/><path d="m171.826 211.911-.003 19.485c0 .879.605 1.647 1.465 1.849l18.985 4.473c1.191.286 2.337-.618 2.337-1.849v-23.958z" fill="url(#SVGID_00000143611394431145869960000011174896640324259254_)"/></g><g><path d="m138.868 319.673 52.347 12.349c1.734.409 3.396-.906 3.396-2.688v-28.749c0-1.281-.881-2.394-2.128-2.688l-52.347-12.347c-1.734-.409-3.396.906-3.396 2.688v28.747c.001 1.281.882 2.394 2.128 2.688z" fill="url(#SVGID_00000122712668397810132720000005762810996738724003_)"/><path d="m136.741 296.388v20.597c0 1.281.881 2.394 2.127 2.688l52.347 12.349c1.734.409 3.396-.906 3.396-2.688v-19.294z" fill="url(#SVGID_00000073722865043469010980000008679398070394718638_)"/><path d="m192.483 297.898-26.583-6.27v34.423l25.315 5.972c1.734.409 3.396-.906 3.396-2.688v-28.749c0-1.281-.881-2.394-2.128-2.688z" fill="url(#SVGID_00000035512195986953558680000012607321977995171469_)"/></g></g></g><g><path d="m329.458 202.104-117.544 105.236 55.77 55.77 110.516-26.071c5.469-1.289 9.336-6.172 9.336-11.791v-65.067z" fill="url(#SVGID_00000038393796687829110790000011002112610076697783_)"/><g><g><path d="m230.667 315.114c-7.086 0-13.746-2.761-18.756-7.771l-29.369-29.369c-6.96-6.961-6.96-18.243 0-25.205 6.959-6.957 18.243-6.957 25.203 0l22.923 22.923 73.588-73.588c6.959-6.957 18.243-6.957 25.203 0 6.96 6.961 6.96 18.243 0 25.205l-80.037 80.037c-5.008 5.007-11.669 7.768-18.755 7.768z" fill="url(#SVGID_00000142871151503708581780000018049029812625774249_)"/></g><g><path d="m230.667 315.114c-7.086 0-13.746-2.761-18.756-7.771l-29.369-29.369c-6.96-6.961-6.96-18.243 0-25.205 6.959-6.957 18.243-6.957 25.203 0l22.923 22.923 73.588-73.588c6.959-6.957 18.243-6.957 25.203 0 6.96 6.961 6.96 18.243 0 25.205l-80.037 80.037c-5.008 5.007-11.669 7.768-18.755 7.768z" fill="url(#SVGID_00000031181018283456892880000000277197160531923901_)"/></g><g><path d="m289.684 267.09-40.26 40.26c-5.01 5-11.67 7.76-18.76 7.76-7.08 0-13.74-2.76-18.75-7.77l-29.37-29.37c-6.96-6.96-6.96-18.24 0-25.2s18.24-6.96 25.2 0l22.92 22.92 33.81-33.81z" fill="url(#SVGID_00000070811237720728710120000000437367496309620368_)"/></g></g></g><g><path d="m182.522 408.131h-52.086c-3.298 0-5.971-2.673-5.971-5.971 0-3.298 2.673-5.971 5.971-5.971h52.086c3.298 0 5.971 2.673 5.971 5.971 0 3.297-2.673 5.971-5.971 5.971z" fill="url(#SVGID_00000130633709674080342850000012843356500165197725_)"/><path d="m260.519 423.702h-131.922c-2.283 0-4.133-1.85-4.133-4.133 0-2.283 1.85-4.133 4.133-4.133h131.921c2.283 0 4.133 1.85 4.133 4.133.001 2.282-1.85 4.133-4.132 4.133z" fill="url(#SVGID_00000057867444891868834390000003624231232440619932_)"/><path d="m213.921 439.38h-85.324c-2.283 0-4.133-1.85-4.133-4.133 0-2.283 1.85-4.133 4.133-4.133h85.324c2.283 0 4.133 1.85 4.133 4.133 0 2.283-1.85 4.133-4.133 4.133z" fill="url(#SVGID_00000036221234373402861100000014665437425954233262_)"/></g></g><g/><g/><g/><g/><g/><g/><g/><g/><g/><g/><g/><g/><g/><g/><g/></svg>