<svg id="Capa_1" enable-background="new 0 0 510 510" height="512" viewBox="0 0 510 510" width="512" xmlns="http://www.w3.org/2000/svg" xmlns:xlink="http://www.w3.org/1999/xlink"><linearGradient id="SVGID_1_" gradientUnits="userSpaceOnUse" x1="483.733" x2="419.733" y1="339.051" y2="316.051"><stop offset="0" stop-color="#78a91f" stop-opacity="0"/><stop offset="1" stop-color="#017b4e"/></linearGradient><linearGradient id="SVGID_00000014614121105532822640000006118483818703276977_" gradientUnits="userSpaceOnUse" x1="55.161" x2="359.606" y1="220.116" y2="404.256"><stop offset="0" stop-color="#fef0ae"/><stop offset="1" stop-color="#fbc56d"/></linearGradient><linearGradient id="lg1"><stop offset="0" stop-color="#dc8758" stop-opacity="0"/><stop offset=".2153" stop-color="#dd8654" stop-opacity=".215"/><stop offset=".4291" stop-color="#e28448" stop-opacity=".429"/><stop offset=".6424" stop-color="#ea8034" stop-opacity=".642"/><stop offset=".8542" stop-color="#f47b18" stop-opacity=".854"/><stop offset="1" stop-color="#fe7701"/></linearGradient><linearGradient id="SVGID_00000017475213404244095600000014194878374073618602_" gradientUnits="userSpaceOnUse" x1="255" x2="255" xlink:href="#lg1" y1="425.373" y2="539.587"/><linearGradient id="SVGID_00000125598794886441058590000013602811317067819907_" gradientUnits="userSpaceOnUse" x1="228.031" x2="126.031" xlink:href="#lg1" y1="417.358" y2="335.358"/><linearGradient id="lg2"><stop offset="0" stop-color="#eaf6ff"/><stop offset="1" stop-color="#b3dafe"/></linearGradient><linearGradient id="SVGID_00000083062611604513075360000006182260386713252505_" gradientUnits="userSpaceOnUse" x1="242.947" x2="264.947" xlink:href="#lg2" y1="386.41" y2="483.077"/><linearGradient id="lg3"><stop offset="0" stop-color="#7bacdf" stop-opacity="0"/><stop offset="1" stop-color="#7bacdf"/></linearGradient><linearGradient id="SVGID_00000178194821683194052680000005457542569836598927_" gradientUnits="userSpaceOnUse" x1="244.693" x2="280.027" xlink:href="#lg3" y1="388.451" y2="563.118"/><linearGradient id="SVGID_00000127745499579393912730000014894836934171969168_" gradientUnits="userSpaceOnUse" x1="244.693" x2="280.027" xlink:href="#lg3" y1="380.451" y2="555.118"/><linearGradient id="SVGID_00000043440088114347389890000013030827711439733932_" gradientUnits="userSpaceOnUse" x1="244.693" x2="280.027" xlink:href="#lg3" y1="372.451" y2="547.118"/><linearGradient id="SVGID_00000091729530953379326330000002650683212229090227_" gradientUnits="userSpaceOnUse" x1="244.693" x2="280.027" xlink:href="#lg3" y1="364.451" y2="539.118"/><linearGradient id="SVGID_00000124133785140306695510000015085761820362883232_" gradientUnits="userSpaceOnUse" x1="319.366" x2="252.7" xlink:href="#lg3" y1="430.125" y2="442.791"/><linearGradient id="SVGID_00000065033967138351355080000004844000693790356612_" gradientUnits="userSpaceOnUse" x1="73.078" x2="350.537" y1="184.806" y2="352.624"><stop offset="0" stop-color="#eaf9fa"/><stop offset="1" stop-color="#b3dafe"/></linearGradient><linearGradient id="SVGID_00000072257539788838088760000006010451051499365270_" gradientUnits="userSpaceOnUse" x1="262.736" x2="391.402" xlink:href="#lg2" y1="219.311" y2="315.977"/><linearGradient id="SVGID_00000103978897031271289950000005029362870762706323_" gradientUnits="userSpaceOnUse" x1="406.617" x2="168.617" xlink:href="#lg3" y1="289.611" y2="85.611"/><linearGradient id="SVGID_00000076562125352484086900000011197667796661054139_" gradientUnits="userSpaceOnUse" x1="161.656" x2="348.345" y1="77.567" y2="264.257"><stop offset="0" stop-color="#aeffd1"/><stop offset=".1201" stop-color="#a3f9cb"/><stop offset=".3288" stop-color="#87eab9"/><stop offset=".6012" stop-color="#59d19d"/><stop offset=".9235" stop-color="#19af77"/><stop offset="1" stop-color="#09a76d"/></linearGradient><linearGradient id="lg4"><stop offset="0" stop-color="#02905d" stop-opacity="0"/><stop offset=".3274" stop-color="#028857" stop-opacity=".327"/><stop offset=".8532" stop-color="#027046" stop-opacity=".853"/><stop offset="1" stop-color="#026841"/></linearGradient><linearGradient id="SVGID_00000032645027461878140270000015181256384935081903_" gradientUnits="userSpaceOnUse" x1="340.86" x2="340.86" xlink:href="#lg4" y1="171.331" y2="208.149"/><linearGradient id="SVGID_00000016047300197359259380000006781126118947900066_" gradientUnits="userSpaceOnUse" x1="169.14" x2="169.14" xlink:href="#lg4" y1="171.331" y2="208.149"/><g><g><g><path d="m496.24 172.444c-12.025-4.145-24.112-7.613-36.24-10.429v339.612c8.845 2.054 17.668 4.448 26.461 7.208 11.674 3.665 23.539-5.107 23.539-17.343v-299.864c0-8.683-5.551-16.354-13.76-19.184z" fill="url(#SVGID_1_)"/><g><path d="m255 177.488c-79.298-30.809-161.618-32.487-241.24-5.044-8.209 2.83-13.76 10.502-13.76 19.185v299.863c0 12.236 11.865 21.007 23.539 17.343 64.507-20.25 130.619-21.488 195.326-3.707 23.631 6.494 48.639 6.493 72.271 0 64.702-17.779 130.814-16.545 195.325 3.707 11.674 3.665 23.539-5.107 23.539-17.343v-299.863c0-8.683-5.551-16.355-13.76-19.184-79.629-27.447-161.949-25.763-241.24 5.043z" fill="url(#SVGID_00000014614121105532822640000006118483818703276977_)"/><path d="m0 355.218v136.274c0 12.235 11.865 21.007 23.539 17.343 64.507-20.25 130.619-21.488 195.326-3.707 23.631 6.494 48.639 6.493 72.271 0 64.702-17.779 130.814-16.545 195.325 3.707 11.674 3.665 23.539-5.107 23.539-17.343v-136.274z" fill="url(#SVGID_00000017475213404244095600000014194878374073618602_)"/><path d="m29.666 414.071v70.284l17.847 17.847c56.845-13.632 114.639-12.659 171.352 2.925 23.631 6.494 48.639 6.493 72.271 0 64.702-17.779 130.814-16.545 195.325 3.707 11.674 3.665 23.539-5.107 23.539-17.343v-77.42z" fill="url(#SVGID_00000125598794886441058590000013602811317067819907_)"/><path d="m472.668 388.034c-71.898-24.127-146.133-22.29-217.668 5.503-71.542-27.796-145.776-29.627-217.668-5.503-9.059 3.04-15.204 11.479-15.204 21.035v61.132c0 11.537 11.188 19.731 22.204 16.3 63.714-19.848 129.131-19.391 192.771 1.373 11.784 3.845 24.483 3.671 36.272-.156 63.485-20.609 128.733-21.017 192.292-1.218 11.015 3.431 22.204-4.762 22.204-16.3v-61.132c0-9.556-6.144-17.994-15.203-21.034z" fill="url(#SVGID_00000083062611604513075360000006182260386713252505_)"/><path d="m472.668 388.034c-71.898-24.127-146.133-22.29-217.668 5.503-71.542-27.796-145.776-29.627-217.668-5.503-9.059 3.04-15.204 11.479-15.204 21.035v61.132c0 11.537 11.188 19.731 22.204 16.3 63.714-19.848 129.131-19.391 192.771 1.373 11.784 3.845 24.483 3.671 36.272-.156 63.485-20.609 128.733-21.017 192.292-1.218 11.015 3.431 22.204-4.762 22.204-16.3v-61.132c0-9.556-6.144-17.994-15.203-21.034z" fill="url(#SVGID_00000178194821683194052680000005457542569836598927_)"/><path d="m472.668 380.034c-71.898-24.127-146.133-22.29-217.668 5.503-71.542-27.796-145.776-29.627-217.668-5.503-9.059 3.04-15.204 11.479-15.204 21.035v61.132c0 11.537 11.188 19.731 22.204 16.3 63.714-19.848 129.131-19.391 192.771 1.373 11.784 3.845 24.483 3.671 36.272-.156 63.485-20.609 128.733-21.017 192.292-1.218 11.015 3.431 22.204-4.762 22.204-16.3v-61.132c0-9.556-6.144-17.994-15.203-21.034z" fill="url(#SVGID_00000127745499579393912730000014894836934171969168_)"/><path d="m472.668 372.034c-71.898-24.127-146.133-22.29-217.668 5.503-71.542-27.796-145.776-29.627-217.668-5.503-9.059 3.04-15.204 11.479-15.204 21.035v61.132c0 11.537 11.188 19.731 22.204 16.3 63.714-19.848 129.131-19.391 192.771 1.373 11.784 3.845 24.483 3.671 36.272-.156 63.485-20.609 128.733-21.017 192.292-1.218 11.015 3.431 22.204-4.762 22.204-16.3v-61.132c0-9.556-6.144-17.994-15.203-21.034z" fill="url(#SVGID_00000043440088114347389890000013030827711439733932_)"/><path d="m472.668 364.034c-71.898-24.127-146.133-22.29-217.668 5.503-71.542-27.796-145.776-29.627-217.668-5.503-9.059 3.04-15.204 11.479-15.204 21.035v61.132c0 11.537 11.188 19.731 22.204 16.3 63.714-19.848 129.131-19.391 192.771 1.373 11.784 3.845 24.483 3.671 36.272-.156 63.485-20.609 128.733-21.017 192.292-1.218 11.015 3.431 22.204-4.762 22.204-16.3v-61.132c0-9.556-6.144-17.994-15.203-21.034z" fill="url(#SVGID_00000091729530953379326330000002650683212229090227_)"/><path d="m273.376 487.718c32.381-10.512 65.22-15.755 98.06-15.755v-100.736c-.017 0-.034 0-.051 0l-98.933 16.08c-5.833 1.912-11.652 3.977-17.453 6.23v97.133c6.202-.016 12.406-1.014 18.377-2.952z" fill="url(#SVGID_00000124133785140306695510000015085761820362883232_)"/><path d="m472.668 139.959c-71.898-24.127-146.133-22.289-217.668 5.503-71.542-27.796-145.776-29.627-217.668-5.503-9.059 3.04-15.204 11.479-15.204 21.035v270.54c0 11.537 11.188 19.731 22.204 16.3 63.714-19.848 129.131-19.391 192.771 1.373 11.784 3.845 24.483 3.671 36.272-.156 63.485-20.609 128.733-21.017 192.292-1.218 11.015 3.431 22.204-4.762 22.204-16.3v-270.54c0-9.555-6.144-17.994-15.203-21.034z" fill="url(#SVGID_00000065033967138351355080000004844000693790356612_)"/><g><g><g fill="#7bacdf"><path d="m186.416 290.76c-30.996-1.603-61.334-1.144-92.054 1.39-4.918.482-8.897 4.936-8.897 9.859 0 4.924 3.979 8.453 8.897 7.971 30.719-2.533 61.058-2.993 92.054-1.39 4.957.331 8.975-3.32 8.975-8.244 0-4.923-4.017-9.254-8.975-9.586z"/><path d="m63.597 296.038c-4.008.621-6.009.951-10.005 1.646-4.868.847-8.803 5.598-8.803 10.521 0 4.924 3.934 8.156 8.802 7.309 3.996-.695 5.997-1.025 10.005-1.646 4.882-.757 8.851-5.29 8.851-10.214.001-4.923-3.967-8.373-8.85-7.616z"/></g></g><g><g fill="#7bacdf"><path d="m53.593 354.009c13.241-2.358 26.737-4.197 40.176-5.476 4.918-.487 8.912-4.801 8.912-9.725s-3.994-8.592-8.912-8.105c-13.439 1.278-26.935 3.118-40.176 5.475-4.868.847-8.802 5.598-8.802 10.521s3.933 8.157 8.802 7.31z"/><path d="m124.72 346.339c4.057-.174 6.087-.243 10.148-.343 4.948-.122 8.963-4.141 8.962-9.065 0-4.924-4.015-8.887-8.963-8.765-4.061.101-6.091.169-10.148.343-4.942.212-8.944 4.447-8.944 9.371.001 4.924 4.003 8.671 8.945 8.459z"/><path d="m186.416 374.758c-30.996-1.603-61.334-1.144-92.054 1.39-4.918.482-8.897 4.936-8.897 9.859 0 4.924 3.979 8.453 8.897 7.971 30.719-2.533 61.058-2.993 92.054-1.39 4.957.331 8.975-3.32 8.975-8.244 0-4.923-4.017-9.255-8.975-9.586z"/><path d="m63.597 380.035c-4.008.621-6.009.951-10.005 1.646-4.868.847-8.803 5.598-8.803 10.521 0 4.924 3.934 8.156 8.802 7.309 3.996-.695 5.997-1.025 10.005-1.646 4.882-.757 8.851-5.29 8.851-10.214.001-4.923-3.967-8.373-8.85-7.616z"/></g></g></g><path d="m273.376 449.051c63.485-20.609 128.733-21.017 192.292-1.218 11.015 3.431 22.204-4.762 22.204-16.3v-270.54c0-9.556-6.144-17.995-15.204-21.035-71.898-24.126-146.133-22.288-217.668 5.504v306.541c6.201-.016 12.405-1.013 18.376-2.952z" fill="url(#SVGID_00000072257539788838088760000006010451051499365270_)"/></g></g><g fill="#7bacdf"><path d="m286.56 376.805c13.241-2.3 26.737-4.081 40.176-5.302 4.918-.466 8.912-4.763 8.912-9.686 0-4.924-3.994-8.609-8.912-8.144-13.439 1.22-26.935 3.001-40.176 5.301-4.868.826-8.802 5.559-8.802 10.483s3.934 8.174 8.802 7.348z"/><path d="m357.688 369.443c4.057-.157 6.087-.216 10.148-.299 4.948-.101 8.963-4.103 8.962-9.026 0-4.924-4.015-8.905-8.963-8.804-4.061.083-6.091.143-10.148.299-4.942.191-8.944 4.408-8.944 9.332.001 4.924 4.003 8.689 8.945 8.498z"/><path d="m419.384 398.128c-30.996-1.737-61.334-1.409-92.054.992-4.918.46-8.897 4.897-8.897 9.821s3.979 8.47 8.897 8.009c30.719-2.4 61.058-2.728 92.054-.991 4.957.353 8.975-3.281 8.975-8.205 0-4.923-4.017-9.273-8.975-9.626z"/><path d="m296.565 402.875c-4.008.604-6.009.925-10.005 1.603-4.868.826-8.803 5.56-8.803 10.483 0 4.924 3.934 8.173 8.802 7.347 3.996-.678 5.997-.999 10.005-1.603 4.882-.736 8.851-5.251 8.851-10.175.001-4.924-3.967-8.391-8.85-7.655z"/></g></g><path d="m472.668 139.959c-71.898-24.127-146.133-22.289-217.668 5.503-16.191-6.291-32.521-11.237-48.93-14.868l-58.737 58.737 58.167 58.167v59.833l128.265 128.265c44.02-5.403 88.358-1.327 131.902 12.238 11.015 3.431 22.204-4.763 22.204-16.3v-270.54c0-9.556-6.144-17.995-15.203-21.035z" fill="url(#SVGID_00000103978897031271289950000005029362870762706323_)"/><g><path d="m336.64 199.727h-29.64v99.941c0 6.557-4.453 12.292-10.819 13.865-7.621 1.883-15.223 4.056-22.801 6.514-11.79 3.83-24.49 4-36.28.16-7.743-2.524-15.509-4.753-23.296-6.681-6.359-1.575-10.804-7.31-10.804-13.862v-99.937h-29.64c-30.28 0-48.41-33.68-31.73-58.96l81.64-123.69c2.3-3.48 5.02-6.43 8.05-8.84 13.74-10.98 33.62-10.98 47.36 0 3.03 2.41 5.75 5.36 8.05 8.84l81.64 123.69c16.68 25.28-1.45 58.96-31.73 58.96z" fill="url(#SVGID_00000076562125352484086900000011197667796661054139_)"/><g><path d="m368.37 140.768-61.37-92.98v151.94h29.64c30.28-.001 48.41-33.681 31.73-58.96z" fill="url(#SVGID_00000032645027461878140270000015181256384935081903_)"/><path d="m173.36 199.727h29.64v-151.939l-61.37 92.98c-16.68 25.279 1.45 58.959 31.73 58.959z" fill="url(#SVGID_00000016047300197359259380000006781126118947900066_)"/></g></g></g></svg>