<svg id="Capa_1" enable-background="new 0 0 510 510" height="512" viewBox="0 0 510 510" width="512" xmlns="http://www.w3.org/2000/svg" xmlns:xlink="http://www.w3.org/1999/xlink"><linearGradient id="SVGID_1_" gradientUnits="userSpaceOnUse" x1="85.669" x2="492.841" y1="125.078" y2="532.249"><stop offset="0" stop-color="#fee45a"/><stop offset="1" stop-color="#fe860a"/></linearGradient><linearGradient id="lg1"><stop offset="0" stop-color="#fe860a" stop-opacity="0"/><stop offset="1" stop-color="#fe7701"/></linearGradient><linearGradient id="SVGID_2_" gradientUnits="userSpaceOnUse" x1="475.449" x2="-49.551" xlink:href="#lg1" y1="303.551" y2="-69.449"/><linearGradient id="SVGID_3_" gradientUnits="userSpaceOnUse" x1="526.95" x2="205.722" xlink:href="#lg1" y1="189.987" y2="528.769"/><linearGradient id="SVGID_4_" gradientUnits="userSpaceOnUse" x1="526.244" x2="385.578" xlink:href="#lg1" y1="269.527" y2="76.86"/><linearGradient id="SVGID_5_" gradientUnits="userSpaceOnUse" x1="255" x2="255" xlink:href="#lg1" y1="438" y2="530.195"/><linearGradient id="lg2"><stop offset="0" stop-color="#eaf6ff"/><stop offset=".2575" stop-color="#dce8fa"/><stop offset=".7423" stop-color="#b8c4ed"/><stop offset="1" stop-color="#a2aee6"/></linearGradient><linearGradient id="SVGID_6_" gradientUnits="userSpaceOnUse" x1="132.782" x2="277.838" xlink:href="#lg2" y1="90.202" y2="235.257"/><linearGradient id="SVGID_7_" gradientUnits="userSpaceOnUse" x1="317.5" x2="446.535" y1="23.5" y2="152.535"><stop offset="0" stop-color="#a2e62e"/><stop offset="1" stop-color="#02905d"/></linearGradient><linearGradient id="lg3"><stop offset="0" stop-color="#02905d" stop-opacity="0"/><stop offset=".4554" stop-color="#028a58" stop-opacity=".455"/><stop offset="1" stop-color="#017b4e"/></linearGradient><linearGradient id="SVGID_8_" gradientUnits="userSpaceOnUse" x1="376" x2="376" xlink:href="#lg3" y1="103" y2="175"/><linearGradient id="SVGID_9_" gradientUnits="userSpaceOnUse" x1="445.902" x2="394.389" xlink:href="#lg3" y1="140.098" y2="88.585"/><linearGradient id="SVGID_10_" gradientUnits="userSpaceOnUse" x1="346.217" x2="421.045" xlink:href="#lg2" y1="40.416" y2="115.244"/><g><g><g><path d="m490.816 510h-471.632c-10.595 0-19.184-8.589-19.184-19.184v-392.816c0-10.595 8.589-19.184 19.184-19.184h471.633c10.594 0 19.183 8.589 19.183 19.184v392.816c0 10.595-8.589 19.184-19.184 19.184z" fill="url(#SVGID_1_)"/><path d="m510 97.998v392.82c0 10.59-8.59 19.18-19.18 19.18h-62.6l-308.97-308.97v-122.21h371.57c10.59 0 19.18 8.59 19.18 19.18z" fill="url(#SVGID_2_)"/><path d="m490.816 78.816h-134c10.595 0 19.184 8.589 19.184 19.184v392.816c0 10.595-8.589 19.184-19.184 19.184h134c10.595 0 19.184-8.589 19.184-19.184v-392.816c0-10.595-8.589-19.184-19.184-19.184z" fill="url(#SVGID_3_)"/><path d="m510 98v233.91l-191.77-191.76v-61.33h172.59c10.59 0 19.18 8.59 19.18 19.18z" fill="url(#SVGID_4_)"/><path d="m0 406v84.816c0 10.595 8.589 19.184 19.184 19.184h471.633c10.595 0 19.184-8.589 19.184-19.184v-84.816z" fill="url(#SVGID_5_)"/></g><path d="m138.94 204.314.376.229c8.623 5.235 19.464 5.147 28.001-.228 8.724-5.268 19.649-5.268 28.373 0 8.724 5.268 19.649 5.268 28.374 0l.001-.001c4.043-2.341 8.517-2.392 13.023-1.547 5.139.964 9.912-2.889 9.912-8.117v-111.933c0-3.727-3.022-6.749-6.749-6.749h-117.502c-3.727 0-6.749 3.022-6.749 6.749v111.775c0 5.197 4.727 9.088 9.835 8.131 4.551-.853 9.066-.761 13.105 1.691z" fill="url(#SVGID_6_)"/><g fill="#c4573a"><g><path d="m54.768 395.971h12.278v41.02c0 1.637 1.327 2.963 2.964 2.963h22.073c1.637 0 2.964-1.327 2.964-2.963v-41.02h12.278c3.756 0 6.004-4.177 3.935-7.311l-26.278-39.815c-1.863-2.823-6.006-2.823-7.87 0l-26.278 39.815c-2.069 3.134.179 7.311 3.934 7.311z"/><path d="m119.138 453.954h-76.185c-1.054 0-1.908.854-1.908 1.908v11.185c0 1.053.854 1.907 1.908 1.907h76.185c1.054 0 1.908-.854 1.908-1.907v-11.185c0-1.054-.854-1.908-1.908-1.908z"/></g><g><path d="m441 410.954h-37.759c-1.053 0-1.908-.854-1.908-1.908v-11.185c0-1.054.854-1.908 1.908-1.908h37.759c1.054 0 1.908.854 1.908 1.908v11.185c0 1.054-.854 1.908-1.908 1.908z"/><path d="m489 439.954h-85.759c-1.053 0-1.908-.854-1.908-1.908v-11.185c0-1.054.854-1.908 1.908-1.908h85.759c1.054 0 1.908.854 1.908 1.908v11.185c0 1.054-.854 1.908-1.908 1.908z"/><path d="m463 468.954h-59.759c-1.053 0-1.908-.854-1.908-1.908v-11.185c0-1.054.854-1.908 1.908-1.908h59.759c1.054 0 1.908.854 1.908 1.908v11.185c0 1.054-.854 1.908-1.908 1.908z"/></g></g></g><g><g><circle cx="376" cy="82" fill="url(#SVGID_7_)" r="82"/><path d="m294.025 83c.538 44.824 37.023 81 81.975 81s81.437-36.176 81.975-81z" fill="url(#SVGID_8_)"/></g><path d="m353.15 127.08 35.876 35.879c39.095-6.242 68.974-40.106 68.974-80.959 0-3.454-.239-6.851-.653-10.193l-24.467-24.467z" fill="url(#SVGID_9_)"/><path d="m437.47 60.264-66.818 66.818c-4.834 4.834-12.672 4.834-17.506 0l-38.616-38.616c-2.301-2.301-2.301-6.031 0-8.331l16.915-16.915c2.301-2.301 6.031-2.301 8.331 0l20.819 20.819c.72.72 1.887.72 2.607 0l49.022-49.021c2.301-2.301 6.031-2.301 8.331 0l16.915 16.915c2.301 2.3 2.301 6.03 0 8.331z" fill="url(#SVGID_10_)"/></g></g></svg>