<svg id="Layer_1" enable-background="new 0 0 512 512" viewBox="0 0 512 512" xmlns="http://www.w3.org/2000/svg" xmlns:xlink="http://www.w3.org/1999/xlink"><linearGradient id="lg1"><stop offset="0" stop-color="#fea613"/><stop offset="1" stop-color="#c4573a"/></linearGradient><linearGradient id="SVGID_1_" gradientUnits="userSpaceOnUse" x1="21.449" x2="318.937" xlink:href="#lg1" y1="209.11" y2="447.582"/><linearGradient id="lg2"><stop offset="0" stop-color="#c4573a" stop-opacity="0"/><stop offset=".235" stop-color="#be5539" stop-opacity=".235"/><stop offset=".539" stop-color="#ae4e35" stop-opacity=".539"/><stop offset=".8794" stop-color="#934330" stop-opacity=".879"/><stop offset="1" stop-color="#883f2e"/></linearGradient><linearGradient id="SVGID_00000060730099813002166760000000638816329575518639_" gradientUnits="userSpaceOnUse" x1="151.455" x2="172.288" xlink:href="#lg2" y1="270.737" y2="270.737"/><linearGradient id="SVGID_00000072978431712623774490000016790897529741738942_" gradientUnits="userSpaceOnUse" x1="288.172" x2="346.034" xlink:href="#lg2" y1="341.126" y2="341.126"/><linearGradient id="SVGID_00000070081063538233451210000008646297215924678031_" gradientUnits="userSpaceOnUse" x1="72.468" x2="194.415" xlink:href="#lg2" y1="309.896" y2="460.748"/><linearGradient id="SVGID_00000178922357746925368020000002042646737667270307_" gradientUnits="userSpaceOnUse" x1="116.739" x2="173.413" xlink:href="#lg2" y1="313.504" y2="243.999"/><linearGradient id="SVGID_00000060738091216030990420000001530386612565087163_" gradientUnits="userSpaceOnUse" x1="81.625" x2="74.399" xlink:href="#lg2" y1="415.475" y2="452.812"/><linearGradient id="SVGID_00000031194348259546435630000014155072335643819707_" gradientTransform="matrix(-1 0 0 1 -754.03 0)" gradientUnits="userSpaceOnUse" x1="-1013.738" x2="-1020.965" xlink:href="#lg2" y1="415.475" y2="452.812"/><linearGradient id="SVGID_00000069380832507107998990000013151380500175649668_" gradientUnits="userSpaceOnUse" x1="169.531" x2="174.047" xlink:href="#lg1" y1="212.388" y2="272.608"/><linearGradient id="SVGID_00000101097452390883348970000012889718977771844538_" gradientUnits="userSpaceOnUse" x1="118.812" x2="122.124" xlink:href="#lg2" y1="215.5" y2="229.351"/><linearGradient id="lg3"><stop offset="0" stop-color="#fef0ae"/><stop offset="1" stop-color="#fac600"/></linearGradient><linearGradient id="SVGID_00000080910246191796864850000018017566617012306860_" gradientUnits="userSpaceOnUse" x1="140.751" x2="164.237" xlink:href="#lg3" y1="201.716" y2="258.926"/><linearGradient id="lg4"><stop offset="0" stop-color="#fe9738" stop-opacity="0"/><stop offset="1" stop-color="#fe9738"/></linearGradient><linearGradient id="SVGID_00000108269983016552805680000002892851532802463133_" gradientUnits="userSpaceOnUse" x1="101.933" x2="101.933" xlink:href="#lg4" y1="236.55" y2="249.735"/><linearGradient id="SVGID_00000081630057822274686460000009185053657649676698_" gradientUnits="userSpaceOnUse" x1="83.723" x2="92.836" xlink:href="#lg4" y1="273.116" y2="273.116"/><linearGradient id="SVGID_00000057110599362696768130000015225054728006623627_" gradientUnits="userSpaceOnUse" x1="75.261" x2="73.455" xlink:href="#lg4" y1="292.639" y2="302.876"/><linearGradient id="lg5"><stop offset="0" stop-color="#f5fbff"/><stop offset="1" stop-color="#dbd5ef"/></linearGradient><linearGradient id="SVGID_00000065049095646927248700000004267771310289412255_" gradientUnits="userSpaceOnUse" x1="31.889" x2="73.798" xlink:href="#lg5" y1="360.003" y2="432.178"/><linearGradient id="lg6"><stop offset="0" stop-color="#dbd5ef" stop-opacity="0"/><stop offset=".2853" stop-color="#d9d2ee" stop-opacity=".285"/><stop offset=".4739" stop-color="#d4c9e9" stop-opacity=".474"/><stop offset=".6346" stop-color="#cbbae2" stop-opacity=".635"/><stop offset=".7795" stop-color="#bfa5d7" stop-opacity=".78"/><stop offset=".9126" stop-color="#af8aca" stop-opacity=".913"/><stop offset="1" stop-color="#a274bf"/></linearGradient><linearGradient id="SVGID_00000134933561567229350880000010083709360396398237_" gradientUnits="userSpaceOnUse" x1="53.04" x2="49.838" xlink:href="#lg6" y1="404.552" y2="418.521"/><linearGradient id="SVGID_00000180346149045053606570000015118884547230173349_" gradientUnits="userSpaceOnUse" x1="80.246" x2="91.155" xlink:href="#lg6" y1="401.164" y2="401.164"/><linearGradient id="lg7"><stop offset="0" stop-color="#5a5a5a"/><stop offset="1" stop-color="#444"/></linearGradient><linearGradient id="SVGID_00000060027507056905574630000007279048287198696083_" gradientUnits="userSpaceOnUse" x1="212.23" x2="234.31" xlink:href="#lg7" y1="386.152" y2="430.716"/><linearGradient id="SVGID_00000023271693750157975010000008497386702697549708_" gradientUnits="userSpaceOnUse" x1="196.14" x2="218.221" xlink:href="#lg7" y1="394.125" y2="438.688"/><linearGradient id="SVGID_00000126300893552960277100000008781214202788597942_" gradientUnits="userSpaceOnUse" x1="192.115" x2="489.604" xlink:href="#lg1" y1="249.352" y2="487.825"/><linearGradient id="SVGID_00000083802230379185519900000017791648218308827576_" gradientUnits="userSpaceOnUse" x1="458.839" x2="516.7" xlink:href="#lg2" y1="381.369" y2="381.369"/><linearGradient id="SVGID_00000136413931758132257210000014067856717171192492_" gradientUnits="userSpaceOnUse" x1="243.135" x2="365.081" xlink:href="#lg2" y1="350.138" y2="500.99"/><linearGradient id="SVGID_00000072264343609263027520000008354152039617734574_" gradientUnits="userSpaceOnUse" x1="261.728" x2="231.788" xlink:href="#lg2" y1="401.718" y2="203.896"/><linearGradient id="SVGID_00000000921098391297300030000001015659274657175208_" gradientUnits="userSpaceOnUse" x1="252.292" x2="245.065" xlink:href="#lg2" y1="455.717" y2="493.054"/><linearGradient id="SVGID_00000097490462663421304860000011181759364208022406_" gradientTransform="matrix(-1 0 0 1 -754.03 0)" gradientUnits="userSpaceOnUse" x1="-1184.405" x2="-1191.632" xlink:href="#lg2" y1="455.717" y2="493.054"/><linearGradient id="SVGID_00000111891732824445535020000004429536141759337904_" gradientUnits="userSpaceOnUse" x1="340.198" x2="344.714" xlink:href="#lg1" y1="252.63" y2="312.85"/><linearGradient id="SVGID_00000085210325295853252650000012030448543786090918_" gradientUnits="userSpaceOnUse" x1="354.003" x2="338.32" xlink:href="#lg2" y1="306.167" y2="258.642"/><linearGradient id="SVGID_00000170260584557441021780000015975760049088195770_" gradientUnits="userSpaceOnUse" x1="289.479" x2="292.791" xlink:href="#lg2" y1="255.743" y2="269.594"/><linearGradient id="SVGID_00000143618764688368395180000008664102551486516113_" gradientUnits="userSpaceOnUse" x1="311.417" x2="334.903" xlink:href="#lg3" y1="241.959" y2="299.168"/><linearGradient id="SVGID_00000003094967833455058190000012315526903683400090_" gradientUnits="userSpaceOnUse" x1="337.143" x2="332.39" xlink:href="#lg4" y1="282.715" y2="262.517"/><linearGradient id="SVGID_00000163061970282533808980000006343085678818636190_" gradientUnits="userSpaceOnUse" x1="272.6" x2="272.6" xlink:href="#lg4" y1="276.793" y2="289.977"/><linearGradient id="SVGID_00000143583846276172961580000003385602743831738247_" gradientUnits="userSpaceOnUse" x1="254.39" x2="263.503" xlink:href="#lg4" y1="313.359" y2="313.359"/><linearGradient id="SVGID_00000039821598367274143750000011050192583014569120_" gradientUnits="userSpaceOnUse" x1="245.928" x2="244.121" xlink:href="#lg4" y1="332.881" y2="343.119"/><linearGradient id="SVGID_00000068673713610242399920000016013159347969809548_" gradientUnits="userSpaceOnUse" x1="202.556" x2="244.464" xlink:href="#lg5" y1="400.245" y2="472.421"/><linearGradient id="SVGID_00000099636441225969980780000011925324585167182511_" gradientUnits="userSpaceOnUse" x1="223.706" x2="220.505" xlink:href="#lg6" y1="444.794" y2="458.764"/><linearGradient id="SVGID_00000021086040644729441110000002022756321579439243_" gradientUnits="userSpaceOnUse" x1="250.913" x2="261.822" xlink:href="#lg6" y1="441.407" y2="441.407"/><linearGradient id="SVGID_00000104674328829965603450000005506542268710255797_" gradientUnits="userSpaceOnUse" x1="382.896" x2="404.977" xlink:href="#lg7" y1="426.395" y2="470.958"/><linearGradient id="SVGID_00000171698205052493539240000005818143360910410646_" gradientUnits="userSpaceOnUse" x1="366.807" x2="388.888" xlink:href="#lg7" y1="434.367" y2="478.93"/><linearGradient id="SVGID_00000086668325707753510500000005187437360281147780_" gradientUnits="userSpaceOnUse" x1="101.779" x2="399.268" xlink:href="#lg1" y1="23.5" y2="261.973"/><linearGradient id="SVGID_00000039115219855098742590000012550552444357264771_" gradientUnits="userSpaceOnUse" x1="368.502" x2="426.364" xlink:href="#lg2" y1="155.517" y2="155.517"/><linearGradient id="SVGID_00000141446290435996067330000014426442542034808244_" gradientUnits="userSpaceOnUse" x1="152.799" x2="274.745" xlink:href="#lg2" y1="124.286" y2="275.138"/><linearGradient id="SVGID_00000000193199503310122260000013776897714267718017_" gradientUnits="userSpaceOnUse" x1="161.956" x2="154.729" xlink:href="#lg2" y1="229.865" y2="267.202"/><linearGradient id="SVGID_00000130611385885705838440000004537486594753094807_" gradientTransform="matrix(-1 0 0 1 -754.03 0)" gradientUnits="userSpaceOnUse" x1="-1094.069" x2="-1101.295" xlink:href="#lg2" y1="229.865" y2="267.202"/><linearGradient id="SVGID_00000145022085554867398940000006455339045563668153_" gradientUnits="userSpaceOnUse" x1="249.861" x2="254.378" xlink:href="#lg1" y1="26.778" y2="86.998"/><linearGradient id="SVGID_00000070828823807354665010000001384552357707459754_" gradientUnits="userSpaceOnUse" x1="199.143" x2="202.455" xlink:href="#lg2" y1="29.891" y2="43.741"/><linearGradient id="SVGID_00000067933733862991264580000015902220916555227776_" gradientUnits="userSpaceOnUse" x1="221.081" x2="244.567" xlink:href="#lg3" y1="16.107" y2="73.316"/><linearGradient id="SVGID_00000022538762970155704330000005824026744104197785_" gradientUnits="userSpaceOnUse" x1="182.264" x2="182.264" xlink:href="#lg4" y1="50.941" y2="64.125"/><linearGradient id="SVGID_00000168813877748075900070000002675470177109206445_" gradientUnits="userSpaceOnUse" x1="164.054" x2="173.167" xlink:href="#lg4" y1="87.506" y2="87.506"/><linearGradient id="SVGID_00000144331476558322379560000013592378647888888485_" gradientUnits="userSpaceOnUse" x1="155.592" x2="153.785" xlink:href="#lg4" y1="107.029" y2="117.266"/><linearGradient id="SVGID_00000169540451720845220570000017912440316810249369_" gradientUnits="userSpaceOnUse" x1="112.22" x2="154.128" xlink:href="#lg5" y1="174.393" y2="246.569"/><linearGradient id="SVGID_00000023249510693704497440000017756335068127262866_" gradientUnits="userSpaceOnUse" x1="133.37" x2="130.169" xlink:href="#lg6" y1="218.942" y2="232.912"/><linearGradient id="SVGID_00000125599590601854012720000002067862595987517119_" gradientUnits="userSpaceOnUse" x1="160.577" x2="171.486" xlink:href="#lg6" y1="215.555" y2="215.555"/><linearGradient id="SVGID_00000039842382415699391990000009556879750086996130_" gradientUnits="userSpaceOnUse" x1="292.56" x2="314.641" xlink:href="#lg7" y1="200.543" y2="245.106"/><linearGradient id="SVGID_00000165931123675150374500000017510271983510946999_" gradientUnits="userSpaceOnUse" x1="276.471" x2="298.552" xlink:href="#lg7" y1="208.515" y2="253.078"/><g><g><g><path d="m341.333 238.835v179.697c0 7.29-5.018 13.626-12.114 15.299l-154.946 36.553c-2.374.557-4.84.557-7.214 0l-154.945-36.553c-7.096-1.673-12.114-8.009-12.114-15.299v-179.697c0-4.384 1.816-8.414 4.798-11.303h331.72v-.017c2.999 2.889 4.815 6.927 4.815 11.32z" fill="url(#SVGID_1_)"/><path d="m170.667 279.078v-16.682h17.59z" fill="url(#SVGID_00000060730099813002166760000000638816329575518639_)"/><path d="m336.518 227.532h-95.921v227.205l88.622-20.907c7.096-1.673 12.114-8.008 12.114-15.299v-179.696c0-4.393-1.816-8.431-4.815-11.32z" fill="url(#SVGID_00000072978431712623774490000016790897529741738942_)"/><path d="m170.667 227.532v243.265c-1.208 0-2.416-.135-3.607-.414l-154.946-36.552c-7.096-1.673-12.114-8.009-12.114-15.299v-179.697c0-4.384 1.816-8.414 4.798-11.303z" fill="url(#SVGID_00000070081063538233451210000008646297215924678031_)"/><path d="m170.667 227.532v243.265c-1.208 0-2.416-.135-3.607-.414l-154.946-36.552c-7.096-1.673-12.114-8.009-12.114-15.299v-179.697c0-4.384 1.816-8.414 4.798-11.303z" fill="url(#SVGID_00000178922357746925368020000002042646737667270307_)"/><path d="m170.667 360.007v110.79c-1.208 0-2.416-.135-3.607-.414l-154.946-36.552c-7.096-1.673-12.114-8.009-12.114-15.299v-96.7l153.248 36.147c5.727 1.352 11.573 2.028 17.419 2.028z" fill="url(#SVGID_00000060738091216030990420000001530386612565087163_)"/><path d="m170.667 360.007v110.79c1.208 0 2.416-.135 3.607-.414l154.946-36.553c7.096-1.673 12.114-8.008 12.114-15.299v-96.7l-153.248 36.149c-5.728 1.351-11.574 2.027-17.419 2.027z" fill="url(#SVGID_00000031194348259546435630000014155072335643819707_)"/><path d="m336.518 227.532-156.77 36.984c-5.972 1.411-12.19 1.411-18.162 0l-156.771-36.984c1.985-1.909 4.469-3.328 7.29-3.996l154.954-36.553c2.374-.558 4.841-.558 7.214 0l57.858 13.651v6.969h29.558l67.538 15.932c2.822.669 5.306 2.088 7.291 3.997z" fill="url(#SVGID_00000069380832507107998990000013151380500175649668_)"/><path d="m232.131 200.635v6.969l-155.9 36.781-71.416-16.853c1.985-1.909 4.469-3.328 7.29-3.996l154.954-36.553c2.374-.558 4.841-.558 7.214 0z" fill="url(#SVGID_00000101097452390883348970000012889718977771844538_)"/></g><g><path d="m232.131 200.626-167.402 39.496c-1.915.452-3.269 2.161-3.269 4.129l-.011 52.507c0 1.144.787 2.138 1.9 2.401l24.634 5.806c1.548.365 3.032-.81 3.032-2.4v-51.636c0-1.795 1.235-3.355 2.982-3.767l167.691-39.56z" fill="url(#SVGID_00000080910246191796864850000018017566617012306860_)"/><path d="m141.1 236.056-47.104 11.109c-.693.16-1.301.515-1.791.98l-29.44-6.944c.532-.515 1.2-.895 1.96-1.081l46.8-11.041z" fill="url(#SVGID_00000108269983016552805680000002892851532802463133_)"/><path d="m62.766 241.2 29.431 6.944c-.735.71-1.183 1.706-1.183 2.788v51.632c0 1.596-1.487 2.771-3.033 2.399l-24.633-5.803c-1.115-.262-1.901-1.259-1.901-2.399l.008-52.51c.001-1.192.5-2.282 1.311-3.051z" fill="url(#SVGID_00000081630057822274686460000009185053657649676698_)"/><path d="m61.452 271.478-.004 25.282c0 1.141.786 2.137 1.901 2.399l24.633 5.803c1.546.372 3.033-.802 3.033-2.399v-31.086h-29.563z" fill="url(#SVGID_00000057110599362696768130000015225054728006623627_)"/></g><g><path d="m18.689 411.299 67.92 16.023c2.25.531 4.406-1.176 4.406-3.487v-37.301c0-1.662-1.143-3.106-2.76-3.487l-67.92-16.021c-2.25-.531-4.406 1.176-4.406 3.487v37.299c0 1.662 1.142 3.105 2.76 3.487z" fill="url(#SVGID_00000065049095646927248700000004267771310289412255_)"/><path d="m15.929 381.087v26.724c0 1.662 1.143 3.106 2.76 3.487l67.92 16.023c2.25.531 4.406-1.176 4.406-3.487v-25.034z" fill="url(#SVGID_00000134933561567229350880000010083709360396398237_)"/><path d="m88.254 383.046-34.491-8.136v44.663l32.846 7.749c2.25.531 4.406-1.176 4.406-3.487v-37.302c-.001-1.662-1.144-3.106-2.761-3.487z" fill="url(#SVGID_00000180346149045053606570000015118884547230173349_)"/></g><g><path d="m197.64 418.256v.076c0 2.126 1.983 3.696 4.053 3.208l48.742-11.497c1.488-.351 2.54-1.679 2.54-3.208v-.076c0-2.126-1.983-3.696-4.053-3.208l-48.742 11.497c-1.488.351-2.54 1.679-2.54 3.208z" fill="url(#SVGID_00000060027507056905574630000007279048287198696083_)"/><path d="m201.693 434.432 24.296-5.73c1.488-.351 2.54-1.679 2.54-3.208v-.077c0-2.126-1.983-3.696-4.053-3.208l-24.296 5.731c-1.488.351-2.54 1.679-2.54 3.208v.077c0 2.125 1.983 3.695 4.053 3.207z" fill="url(#SVGID_00000023271693750157975010000008497386702697549708_)"/></g></g><g><g><path d="m512 279.078v179.697c0 7.29-5.018 13.626-12.114 15.299l-154.946 36.552c-2.374.557-4.84.557-7.214 0l-154.946-36.553c-7.096-1.673-12.114-8.008-12.114-15.299v-179.696c0-4.384 1.816-8.414 4.798-11.303h331.72v-.017c3 2.889 4.816 6.927 4.816 11.32z" fill="url(#SVGID_00000126300893552960277100000008781214202788597942_)"/><path d="m507.185 267.775h-95.921v227.205l88.622-20.907c7.096-1.673 12.114-8.008 12.114-15.299v-179.696c0-4.393-1.816-8.431-4.815-11.32z" fill="url(#SVGID_00000083802230379185519900000017791648218308827576_)"/><path d="m341.333 267.775v243.265c-1.208 0-2.416-.135-3.607-.414l-154.946-36.553c-7.096-1.673-12.114-8.008-12.114-15.299v-179.696c0-4.384 1.816-8.414 4.798-11.303z" fill="url(#SVGID_00000136413931758132257210000014067856717171192492_)"/><path d="m341.333 267.775v243.265c-1.208 0-2.416-.135-3.607-.414l-154.946-36.553c-7.096-1.673-12.114-8.008-12.114-15.299v-179.696c0-4.384 1.816-8.414 4.798-11.303z" fill="url(#SVGID_00000072264343609263027520000008354152039617734574_)"/><path d="m341.333 400.25v110.79c-1.208 0-2.416-.135-3.607-.414l-154.946-36.553c-7.096-1.673-12.114-8.008-12.114-15.299v-96.7l153.248 36.147c5.728 1.353 11.574 2.029 17.419 2.029z" fill="url(#SVGID_00000000921098391297300030000001015659274657175208_)"/><path d="m341.333 400.25v110.79c1.208 0 2.416-.135 3.607-.414l154.946-36.553c7.096-1.673 12.114-8.008 12.114-15.299v-96.7l-153.248 36.147c-5.727 1.353-11.573 2.029-17.419 2.029z" fill="url(#SVGID_00000097490462663421304860000011181759364208022406_)"/><path d="m507.185 267.775-156.77 36.984c-5.972 1.411-12.19 1.411-18.162 0l-156.77-36.984c1.985-1.909 4.469-3.328 7.29-3.996l154.954-36.553c2.374-.558 4.841-.558 7.214 0l57.858 13.651v6.969h29.558l67.538 15.932c2.821.668 5.305 2.088 7.29 3.997z" fill="url(#SVGID_00000111891732824445535020000004429536141759337904_)"/><path d="m507.185 267.775-156.77 36.984c-5.972 1.411-12.19 1.411-18.162 0l-156.77-36.984c1.985-1.909 4.469-3.328 7.29-3.996l154.954-36.553c2.374-.558 4.841-.558 7.214 0l57.858 13.651v6.969h29.558l67.538 15.932c2.821.668 5.305 2.088 7.29 3.997z" fill="url(#SVGID_00000085210325295853252650000012030448543786090918_)"/><path d="m402.798 240.878v6.969l-155.9 36.781-71.416-16.853c1.985-1.909 4.469-3.328 7.29-3.996l154.954-36.553c2.374-.558 4.841-.558 7.214 0z" fill="url(#SVGID_00000170260584557441021780000015975760049088195770_)"/></g><g><path d="m402.798 240.869-167.403 39.496c-1.915.452-3.269 2.161-3.269 4.129l-.011 52.507c0 1.144.787 2.138 1.9 2.401l24.634 5.806c1.548.365 3.032-.81 3.032-2.4v-51.636c0-1.795 1.235-3.355 2.982-3.767l167.691-39.56z" fill="url(#SVGID_00000143618764688368395180000008664102551486516113_)"/><path d="m402.8 240.87-167.4 39.49c-.76.18-1.44.56-1.97 1.08l29.43 6.95c.49-.48 1.1-.82 1.8-.99l167.69-39.56z" fill="url(#SVGID_00000003094967833455058190000012315526903683400090_)"/><path d="m311.767 276.298-47.104 11.109c-.693.16-1.301.515-1.791.98l-29.44-6.944c.532-.515 1.2-.895 1.96-1.081l46.8-11.041z" fill="url(#SVGID_00000163061970282533808980000006343085678818636190_)"/><path d="m233.432 281.443 29.431 6.944c-.735.71-1.183 1.706-1.183 2.788v51.632c0 1.597-1.487 2.771-3.033 2.399l-24.633-5.803c-1.115-.262-1.901-1.259-1.901-2.399l.008-52.51c.002-1.193.5-2.282 1.311-3.051z" fill="url(#SVGID_00000143583846276172961580000003385602743831738247_)"/><path d="m232.118 311.721-.004 25.282c0 1.141.786 2.137 1.901 2.399l24.633 5.803c1.546.372 3.033-.802 3.033-2.399v-31.086h-29.563z" fill="url(#SVGID_00000039821598367274143750000011050192583014569120_)"/></g><g><path d="m189.356 451.542 67.92 16.023c2.25.531 4.406-1.176 4.406-3.487v-37.301c0-1.662-1.143-3.106-2.76-3.487l-67.92-16.021c-2.25-.531-4.406 1.176-4.406 3.487v37.299c-.001 1.661 1.142 3.105 2.76 3.487z" fill="url(#SVGID_00000068673713610242399920000016013159347969809548_)"/><path d="m186.595 421.33v26.724c0 1.662 1.143 3.106 2.76 3.487l67.92 16.023c2.25.531 4.406-1.176 4.406-3.487v-25.034z" fill="url(#SVGID_00000099636441225969980780000011925324585167182511_)"/><path d="m258.921 423.288-34.491-8.136v44.663l32.846 7.749c2.25.531 4.406-1.176 4.406-3.487v-37.302c-.001-1.662-1.144-3.105-2.761-3.487z" fill="url(#SVGID_00000021086040644729441110000002022756321579439243_)"/></g><g><path d="m368.307 458.499v.076c0 2.126 1.983 3.696 4.053 3.208l48.742-11.497c1.488-.351 2.54-1.679 2.54-3.208v-.076c0-2.126-1.983-3.696-4.053-3.208l-48.742 11.497c-1.489.35-2.54 1.679-2.54 3.208z" fill="url(#SVGID_00000104674328829965603450000005506542268710255797_)"/><path d="m372.359 474.675 24.296-5.73c1.488-.351 2.54-1.679 2.54-3.208v-.077c0-2.126-1.983-3.696-4.053-3.208l-24.296 5.731c-1.488.351-2.54 1.679-2.54 3.208v.077c0 2.125 1.984 3.695 4.053 3.207z" fill="url(#SVGID_00000171698205052493539240000005818143360910410646_)"/></g></g><g><g><path d="m421.664 53.225v179.697c0 7.29-5.018 13.626-12.114 15.299l-154.946 36.553c-2.374.557-4.841.557-7.214 0l-154.946-36.553c-7.096-1.673-12.114-8.008-12.114-15.299v-179.697c0-4.384 1.816-8.414 4.798-11.303h331.72v-.017c3 2.89 4.816 6.928 4.816 11.32z" fill="url(#SVGID_00000086668325707753510500000005187437360281147780_)"/><path d="m416.849 41.923h-95.921v227.205l88.622-20.907c7.096-1.673 12.114-8.008 12.114-15.299v-179.697c0-4.393-1.816-8.431-4.815-11.32z" fill="url(#SVGID_00000039115219855098742590000012550552444357264771_)"/><path d="m250.997 41.923v243.265c-1.208 0-2.416-.135-3.607-.414l-154.946-36.553c-7.096-1.673-12.114-8.008-12.114-15.299v-179.697c0-4.384 1.816-8.414 4.798-11.303h165.869z" fill="url(#SVGID_00000141446290435996067330000014426442542034808244_)"/><path d="m250.997 174.398v110.79c-1.208 0-2.416-.135-3.607-.414l-154.946-36.553c-7.096-1.673-12.114-8.008-12.114-15.299v-96.7l153.248 36.147c5.728 1.353 11.574 2.029 17.419 2.029z" fill="url(#SVGID_00000000193199503310122260000013776897714267718017_)"/><path d="m250.997 174.398v110.79c1.208 0 2.416-.135 3.607-.414l154.946-36.553c7.096-1.673 12.114-8.008 12.114-15.299v-96.7l-153.248 36.148c-5.727 1.352-11.573 2.028-17.419 2.028z" fill="url(#SVGID_00000130611385885705838440000004537486594753094807_)"/><path d="m416.849 41.923-156.77 36.984c-5.972 1.411-12.19 1.411-18.162 0l-156.771-36.984c1.985-1.909 4.469-3.328 7.29-3.996l154.954-36.553c2.374-.558 4.84-.558 7.214 0l57.858 13.651v6.969h29.558l67.538 15.932c2.822.668 5.306 2.087 7.291 3.997z" fill="url(#SVGID_00000145022085554867398940000006455339045563668153_)"/><path d="m312.462 15.025v6.969l-155.9 36.781-71.416-16.852c1.985-1.909 4.469-3.328 7.29-3.996l154.954-36.553c2.374-.558 4.84-.558 7.214 0z" fill="url(#SVGID_00000070828823807354665010000001384552357707459754_)"/></g><g><path d="m312.462 15.017-167.403 39.496c-1.915.452-3.269 2.161-3.269 4.129l-.011 52.507c0 1.144.787 2.138 1.9 2.401l24.634 5.806c1.548.365 3.032-.81 3.032-2.4v-51.636c0-1.795 1.235-3.355 2.982-3.767l167.691-39.56z" fill="url(#SVGID_00000067933733862991264580000015902220916555227776_)"/><path d="m221.431 50.446-47.104 11.109c-.693.16-1.301.515-1.791.98l-29.44-6.944c.532-.515 1.2-.895 1.96-1.081l46.8-11.041z" fill="url(#SVGID_00000022538762970155704330000005824026744104197785_)"/><path d="m143.096 55.591 29.431 6.944c-.735.71-1.183 1.706-1.183 2.788v51.632c0 1.597-1.487 2.771-3.033 2.399l-24.633-5.803c-1.115-.262-1.901-1.259-1.901-2.399l.008-52.51c.002-1.193.5-2.283 1.311-3.051z" fill="url(#SVGID_00000168813877748075900070000002675470177109206445_)"/><path d="m141.782 85.869-.004 25.282c0 1.141.786 2.137 1.901 2.399l24.633 5.803c1.546.372 3.033-.802 3.033-2.399v-31.085z" fill="url(#SVGID_00000144331476558322379560000013592378647888888485_)"/></g><g><path d="m99.02 225.689 67.92 16.023c2.25.531 4.406-1.176 4.406-3.487v-37.301c0-1.662-1.143-3.106-2.76-3.487l-67.92-16.021c-2.25-.531-4.406 1.176-4.406 3.487v37.299c-.001 1.662 1.142 3.106 2.76 3.487z" fill="url(#SVGID_00000169540451720845220570000017912440316810249369_)"/><path d="m96.259 195.477v26.724c0 1.662 1.143 3.106 2.76 3.487l67.92 16.023c2.25.531 4.406-1.176 4.406-3.487v-25.034z" fill="url(#SVGID_00000023249510693704497440000017756335068127262866_)"/><path d="m168.584 197.436-34.491-8.136v44.663l32.846 7.749c2.25.531 4.406-1.176 4.406-3.487v-37.302c0-1.662-1.143-3.106-2.761-3.487z" fill="url(#SVGID_00000125599590601854012720000002067862595987517119_)"/></g><g><path d="m277.971 232.646v.076c0 2.126 1.983 3.696 4.053 3.208l48.742-11.497c1.488-.351 2.54-1.679 2.54-3.208v-.076c0-2.126-1.983-3.696-4.053-3.208l-48.742 11.497c-1.489.351-2.54 1.679-2.54 3.208z" fill="url(#SVGID_00000039842382415699391990000009556879750086996130_)"/><path d="m282.023 248.823 24.296-5.73c1.488-.351 2.54-1.679 2.54-3.208v-.077c0-2.126-1.983-3.696-4.053-3.208l-24.296 5.731c-1.488.351-2.54 1.679-2.54 3.208v.077c0 2.125 1.984 3.695 4.053 3.207z" fill="url(#SVGID_00000165931123675150374500000017510271983510946999_)"/></g></g></g><g/><g/><g/><g/><g/><g/><g/><g/><g/><g/><g/><g/><g/><g/><g/></svg>