<svg id="Capa_1" enable-background="new 0 0 510 510" height="512" viewBox="0 0 510 510" width="512" xmlns="http://www.w3.org/2000/svg" xmlns:xlink="http://www.w3.org/1999/xlink"><linearGradient id="lg1"><stop offset="0" stop-color="#fbc56d"/><stop offset="1" stop-color="#c5715a"/></linearGradient><linearGradient id="SVGID_1_" gradientUnits="userSpaceOnUse" x1="227.311" x2="308.452" xlink:href="#lg1" y1="139.94" y2="356.58"/><linearGradient id="SVGID_00000150822937746920068840000015473706070406274740_" gradientUnits="userSpaceOnUse" x1="263.769" x2="377.319" xlink:href="#lg1" y1="127.518" y2="334.455"/><linearGradient id="lg2"><stop offset="0" stop-color="#8c3d27" stop-opacity="0"/><stop offset="1" stop-color="#8c3d27"/></linearGradient><linearGradient id="SVGID_00000054265723915500643840000011446230117686388358_" gradientUnits="userSpaceOnUse" x1="195.325" x2="294.818" xlink:href="#lg2" y1="214.431" y2="234.641"/><linearGradient id="SVGID_00000048470764082325162340000012174109114750272646_" gradientUnits="userSpaceOnUse" x1="255" x2="255" xlink:href="#lg2" y1="268.976" y2="337.227"/><linearGradient id="SVGID_00000044147446928282198080000016943527513780654775_" gradientUnits="userSpaceOnUse" x1="340.796" x2="429.361" xlink:href="#lg2" y1="213.868" y2="213.868"/><linearGradient id="SVGID_00000023268952701234656660000009229228204140984462_" gradientUnits="userSpaceOnUse" x1="375.537" x2="274.537" xlink:href="#lg2" y1="183.132" y2="69.882"/><linearGradient id="SVGID_00000119095196022346392130000013081675448711952787_" gradientUnits="userSpaceOnUse" x1="307.322" x2="346.851" y1="98.899" y2="181.189"><stop offset="0" stop-color="#fef1da"/><stop offset=".1565" stop-color="#feeed4"/><stop offset=".3782" stop-color="#fee7c1"/><stop offset=".6388" stop-color="#fddba3"/><stop offset=".9269" stop-color="#fcca79"/><stop offset="1" stop-color="#fbc56d"/></linearGradient><linearGradient id="lg3"><stop offset="0" stop-color="#fea95c" stop-opacity="0"/><stop offset=".1763" stop-color="#fea556" stop-opacity=".176"/><stop offset=".4259" stop-color="#fe9b43" stop-opacity=".426"/><stop offset=".7179" stop-color="#fe8a25" stop-opacity=".718"/><stop offset="1" stop-color="#fe7701"/></linearGradient><linearGradient id="SVGID_00000023992963953552010850000007125681201526771073_" gradientUnits="userSpaceOnUse" x1="354.493" x2="379.952" xlink:href="#lg3" y1="144.985" y2="144.985"/><linearGradient id="SVGID_00000083776495695641884140000014724030316674758578_" gradientUnits="userSpaceOnUse" x1="327.243" x2="327.243" xlink:href="#lg3" y1="169.368" y2="184.918"/><linearGradient id="SVGID_00000093871010694626436160000008739894144263510928_" gradientTransform="matrix(1 0 0 -1 0 -1613.133)" gradientUnits="userSpaceOnUse" x1="108.217" x2="220.139" xlink:href="#lg2" y1="-2060.967" y2="-1824.998"/><linearGradient id="SVGID_00000109004341706171941190000003672865711384511872_" gradientTransform="matrix(1 0 0 -1 0 -1613.133)" gradientUnits="userSpaceOnUse" x1="128.824" x2="240.746" xlink:href="#lg2" y1="-2070.741" y2="-1834.772"/><linearGradient id="SVGID_00000011742113928210638660000012282171950605455254_" gradientTransform="matrix(1 0 0 -1 0 -1613.133)" gradientUnits="userSpaceOnUse" x1="94.599" x2="206.521" xlink:href="#lg2" y1="-2054.508" y2="-1818.539"/><linearGradient id="SVGID_00000076574233883286642360000014212763360222132902_" gradientUnits="userSpaceOnUse" x1="203.724" x2="354.807" xlink:href="#lg2" y1="167.982" y2="319.065"/><linearGradient id="SVGID_00000057864674574202752080000000855159934602188200_" gradientTransform="matrix(0 1 -1 0 135.485 -17.714)" gradientUnits="userSpaceOnUse" x1="4.807" x2="106.561" y1="-168.613" y2="-80.021"><stop offset="0" stop-color="#d5daf3"/><stop offset="1" stop-color="#60b7ff"/></linearGradient><linearGradient id="lg4"><stop offset="0" stop-color="#0182fc" stop-opacity="0"/><stop offset=".2545" stop-color="#0180f7" stop-opacity=".255"/><stop offset=".5464" stop-color="#0179e9" stop-opacity=".546"/><stop offset=".8556" stop-color="#006ed2" stop-opacity=".856"/><stop offset="1" stop-color="#0067c5"/></linearGradient><linearGradient id="SVGID_00000148637570626420803100000004476149494266690229_" gradientTransform="matrix(0 1 -1 0 135.485 -17.714)" gradientUnits="userSpaceOnUse" x1="72.102" x2="80.202" xlink:href="#lg4" y1="-133.641" y2="-165.787"/><linearGradient id="SVGID_00000064315328046972319030000007584910293143961255_" gradientTransform="matrix(0 1 -1 0 135.485 -17.714)" gradientUnits="userSpaceOnUse" x1="80.625" x2="103.456" xlink:href="#lg4" y1="-86.395" y2="-86.395"/><linearGradient id="SVGID_00000079445989157869518250000002986352157383831219_" gradientTransform="matrix(0 1 -1 0 135.485 -17.714)" gradientUnits="userSpaceOnUse" x1="69.212" x2="69.212" xlink:href="#lg4" y1="-42.768" y2="-22.516"/><linearGradient id="SVGID_00000118394730715094345140000008164009222958072749_" gradientTransform="matrix(0 1 -1 0 135.485 -17.714)" gradientUnits="userSpaceOnUse" x1="86.7" x2="103.238" xlink:href="#lg4" y1="-179.111" y2="-192.273"/><linearGradient id="SVGID_00000168834190598468248090000000899006888028890762_" gradientTransform="matrix(0 1 -1 0 135.485 -17.714)" gradientUnits="userSpaceOnUse" x1="68.434" x2="72.822" xlink:href="#lg4" y1="-164.872" y2="-133.485"/><linearGradient id="SVGID_00000153686459739721179240000002832966312027438479_" gradientUnits="userSpaceOnUse" x1="255" x2="255" y1="436" y2="526.2"><stop offset="0" stop-color="#5b5555"/><stop offset="1" stop-color="#433f43"/></linearGradient><linearGradient id="lg5"><stop offset="0" stop-color="#384949" stop-opacity="0"/><stop offset="1" stop-color="#1a1a1a"/></linearGradient><linearGradient id="SVGID_00000058576063156347902980000000616323577311328642_" gradientUnits="userSpaceOnUse" x1="265.25" x2="265.25" xlink:href="#lg5" y1="479" y2="425.979"/><linearGradient id="SVGID_00000045585319741577859330000000639353379396256413_" gradientUnits="userSpaceOnUse" x1="255" x2="255" xlink:href="#lg5" y1="480.667" y2="510.189"/><linearGradient id="SVGID_00000157992889084658206930000015509261996655091370_" gradientUnits="userSpaceOnUse" x1="464.667" x2="512.169" xlink:href="#lg5" y1="461.5" y2="461.5"/><linearGradient id="lg6"><stop offset="0" stop-color="#eaf9fa"/><stop offset="1" stop-color="#b3dafe"/></linearGradient><linearGradient id="SVGID_00000089568519396875803620000005581622157500378254_" gradientUnits="userSpaceOnUse" x1="255" x2="255" xlink:href="#lg6" y1="309.504" y2="468.705"/><linearGradient id="lg7"><stop offset="0" stop-color="#7bacdf" stop-opacity="0"/><stop offset="1" stop-color="#7bacdf"/></linearGradient><linearGradient id="SVGID_00000113349396993129518330000009260765544627509145_" gradientUnits="userSpaceOnUse" x1="255" x2="255" xlink:href="#lg7" y1="410.504" y2="438.575"/><linearGradient id="SVGID_00000121276135606673761550000006522676188318761892_" gradientUnits="userSpaceOnUse" x1="442.771" x2="494.771" xlink:href="#lg7" y1="402.685" y2="429.685"/><linearGradient id="SVGID_00000024720024670069974900000003327891351805362878_" gradientUnits="userSpaceOnUse" x1="255" x2="255" xlink:href="#lg7" y1="276.504" y2="432.533"/><linearGradient id="SVGID_00000123408333276405105320000006087476544658610855_" gradientUnits="userSpaceOnUse" x1="40.5" x2="79.207" xlink:href="#lg6" y1="359.289" y2="397.996"/><linearGradient id="SVGID_00000037650947100880949720000004320683356244945301_" gradientUnits="userSpaceOnUse" x1="72" x2="40.669" xlink:href="#lg6" y1="390.789" y2="359.458"/><linearGradient id="SVGID_00000098222700540522454180000001921655025298930569_" gradientUnits="userSpaceOnUse" x1="96.5" x2="135.207" xlink:href="#lg6" y1="359.289" y2="397.996"/><linearGradient id="SVGID_00000059286159406368123000000013841778347040692865_" gradientUnits="userSpaceOnUse" x1="128" x2="96.669" xlink:href="#lg6" y1="390.789" y2="359.458"/><linearGradient id="SVGID_00000085250667701894042960000008272002830206287270_" gradientUnits="userSpaceOnUse" x1="152.5" x2="191.207" xlink:href="#lg6" y1="359.289" y2="397.996"/><linearGradient id="SVGID_00000054971102656778631160000000284163982145594815_" gradientUnits="userSpaceOnUse" x1="184" x2="152.669" xlink:href="#lg6" y1="390.789" y2="359.458"/><linearGradient id="SVGID_00000124155637030994114790000005089031196743629723_" gradientUnits="userSpaceOnUse" x1="208.5" x2="247.207" xlink:href="#lg6" y1="359.289" y2="397.996"/><linearGradient id="SVGID_00000004509545376430583720000003027501446005554823_" gradientUnits="userSpaceOnUse" x1="240" x2="208.669" xlink:href="#lg6" y1="390.789" y2="359.458"/><linearGradient id="SVGID_00000140737165119832678120000003194290358111017609_" gradientUnits="userSpaceOnUse" x1="264.5" x2="303.207" xlink:href="#lg6" y1="359.289" y2="397.996"/><linearGradient id="SVGID_00000078012791176940642970000009970702371557257660_" gradientUnits="userSpaceOnUse" x1="296" x2="264.669" xlink:href="#lg6" y1="390.789" y2="359.458"/><linearGradient id="SVGID_00000011713153519750126240000001056436978961916075_" gradientUnits="userSpaceOnUse" x1="320.5" x2="359.207" xlink:href="#lg6" y1="359.289" y2="397.996"/><linearGradient id="SVGID_00000111895342553889348260000018263160929024339120_" gradientUnits="userSpaceOnUse" x1="352" x2="320.669" xlink:href="#lg6" y1="390.789" y2="359.458"/><linearGradient id="SVGID_00000112621173970300722220000006477229559542549918_" gradientUnits="userSpaceOnUse" x1="376.5" x2="415.207" xlink:href="#lg6" y1="359.289" y2="397.996"/><linearGradient id="SVGID_00000077306753177695894840000005971159663405878437_" gradientUnits="userSpaceOnUse" x1="408" x2="376.669" xlink:href="#lg6" y1="390.789" y2="359.458"/><linearGradient id="SVGID_00000130619632689230944690000009846175483863355020_" gradientUnits="userSpaceOnUse" x1="432.5" x2="471.207" xlink:href="#lg6" y1="359.289" y2="397.996"/><linearGradient id="SVGID_00000168076224733445297670000017564551497402410679_" gradientUnits="userSpaceOnUse" x1="464" x2="432.669" xlink:href="#lg6" y1="390.789" y2="359.458"/><g><g><g><path d="m380.958 319.074h-251.916c-9.961 0-18.035-8.075-18.035-18.035v-174.342c0-9.961 8.075-18.035 18.035-18.035h251.916c9.961 0 18.035 8.075 18.035 18.035v174.342c0 9.96-8.075 18.035-18.035 18.035z" fill="url(#SVGID_1_)"/><path d="m380.958 108.661h-150.295c9.961 0 18.035 8.075 18.035 18.035v174.342c0 9.961-8.075 18.035-18.035 18.035h150.295c9.961 0 18.035-8.075 18.035-18.035v-174.341c0-9.961-8.075-18.036-18.035-18.036z" fill="url(#SVGID_00000150822937746920068840000015473706070406274740_)"/><path d="m152.61 319.074h78.053c9.961 0 18.035-8.075 18.035-18.035v-174.342c0-9.961-8.075-18.035-18.035-18.035h-78.053z" fill="url(#SVGID_00000054265723915500643840000011446230117686388358_)"/><path d="m111.007 185.813v115.226c0 9.961 8.075 18.035 18.035 18.035h251.916c9.961 0 18.035-8.075 18.035-18.035v-115.226z" fill="url(#SVGID_00000048470764082325162340000012174109114750272646_)"/><path d="m380.958 108.661h-84.165v210.413h84.165c9.961 0 18.035-8.075 18.035-18.035v-174.342c0-9.961-8.075-18.036-18.035-18.036z" fill="url(#SVGID_00000044147446928282198080000016943527513780654775_)"/></g><path d="m380.958 108.661h-94.715v63.956l112.75 112.75v-158.67c0-9.961-8.075-18.036-18.035-18.036z" fill="url(#SVGID_00000023268952701234656660000009229228204140984462_)"/><g><path d="m285.243 109.264v62.174c0 1.234 1.243 2.08 2.391 1.627l.023-.009c.948-.39 1.838-.964 2.607-1.733 2.939-2.939 7.599-3.112 10.744-.516.195.158.385.332.569.516l6.425 6.425c2.923 2.918 6.878 4.561 11.007 4.561h1.159c4.124 0 8.079-1.638 11.002-4.55 1.454-1.459 3.17-2.596 5.04-3.371 1.87-.779 3.887-1.185 5.951-1.185h1.743c2.549 0 5.074.894 6.864 2.708 1.856 1.881 4.292 2.821 6.729 2.821 2.417 0 4.835-.922 6.673-2.765l1.531-1.531c2.269-2.269 3.544-5.347 3.544-8.557v-56.617c0-.886-.718-1.603-1.603-1.603h-80.793c-.888.002-1.606.72-1.606 1.605z" fill="url(#SVGID_00000119095196022346392130000013081675448711952787_)"/><path d="m367.64 107.661h-53.147v73.977c1.451.44 2.971.671 4.515.671h1.159c4.124 0 8.079-1.638 11.002-4.55 1.454-1.459 3.17-2.596 5.04-3.371 1.87-.779 3.887-1.185 5.951-1.185h1.743c2.549 0 5.074.894 6.864 2.708 1.856 1.881 4.292 2.821 6.729 2.821 2.417 0 4.835-.922 6.673-2.765l1.531-1.531c2.269-2.269 3.544-5.347 3.544-8.557v-56.617c-.001-.883-.719-1.601-1.604-1.601z" fill="url(#SVGID_00000023992963953552010850000007125681201526771073_)"/><path d="m285.243 125.868v45.57c0 1.234 1.243 2.08 2.391 1.627l.023-.009c.948-.39 1.838-.964 2.607-1.733 2.939-2.939 7.599-3.112 10.744-.516.195.158.385.332.569.516l6.425 6.425c2.923 2.918 6.878 4.561 11.007 4.561h1.159c4.124 0 8.079-1.638 11.002-4.55 1.454-1.459 3.17-2.596 5.04-3.371 1.87-.779 3.887-1.185 5.951-1.185h1.743c2.549 0 5.074.894 6.864 2.708 1.856 1.881 4.292 2.821 6.729 2.821 2.417 0 4.835-.922 6.673-2.765l1.531-1.531c2.269-2.269 3.544-5.347 3.544-8.557v-40.013h-84.002z" fill="url(#SVGID_00000083776495695641884140000014724030316674758578_)"/></g><g><path d="m224.51 277.888h-65.7c-3.302 0-5.979-2.677-5.979-5.979s2.677-5.979 5.979-5.979h65.7c3.302 0 5.979 2.677 5.979 5.979 0 3.303-2.677 5.979-5.979 5.979z" fill="url(#SVGID_00000093871010694626436160000008739894144263510928_)"/><path d="m188.784 287.553h35.726c3.302 0 5.979 2.677 5.979 5.979s-2.677 5.979-5.979 5.979h-35.726c-3.302 0-5.979-2.677-5.979-5.979s2.677-5.979 5.979-5.979z" fill="url(#SVGID_00000109004341706171941190000003672865711384511872_)"/><path d="m158.918 287.553h11.607c3.302 0 5.979 2.677 5.979 5.979s-2.677 5.979-5.979 5.979h-11.607c-3.302 0-5.979-2.677-5.979-5.979s2.677-5.979 5.979-5.979z" fill="url(#SVGID_00000011742113928210638660000012282171950605455254_)"/></g><path d="m319.164 241.292h-18.172c-.804 0-1.455.652-1.455 1.455v.083c0 .692.561 1.252 1.253 1.252h1.013c.857 0 1.461.841 1.187 1.653l-4.722 14.004c-.453 1.344-2.439 1.018-2.439-.4v-11.828c0-.692-.561-1.252-1.253-1.252h-1.013c-.857 0-1.461-.841-1.187-1.653l.47-1.393c.318-.943-.384-1.92-1.379-1.92h-2.685c-1.953 0-3.537 1.583-3.537 3.537v13.566c0 7.82 4.85 14.506 11.705 17.217 2.069.818 3.471 2.777 3.529 5.001.079 3.038.011 6.076-.369 9.088-.217 1.724-1.407 3.167-3.059 3.705-2.37.772-4.372 1.891-5.794 3.141-1.173 1.031-.452 2.963 1.109 2.963h23.214c1.562 0 2.282-1.932 1.109-2.963-1.422-1.25-3.423-2.369-5.794-3.141-1.652-.538-2.842-1.981-3.059-3.705-.38-3.013-.448-6.05-.369-9.088.058-2.224 1.46-4.183 3.529-5.001 6.856-2.711 11.705-9.397 11.705-17.217v-13.566c-.001-1.954-1.584-3.538-3.537-3.538z" fill="url(#SVGID_00000076574233883286642360000014212763360222132902_)"/></g><g><path d="m302.22 100.06 44.071-40.392c4.793-4.393 4.793-11.949 0-16.342l-44.071-40.391c-7.109-6.516-18.573-1.473-18.573 8.171v11.795h-110.072c-7.434 0-13.46 6.026-13.46 13.46v30.272c0 7.434 6.026 13.46 13.46 13.46h110.072v11.795c0 9.645 11.464 14.688 18.573 8.172z" fill="url(#SVGID_00000057864674574202752080000000855159934602188200_)"/><path d="m231.662 22.901h51.985v57.193h-51.985z" fill="url(#SVGID_00000148637570626420803100000004476149494266690229_)"/><path d="m160.115 42.914v23.72c0 7.434 6.026 13.46 13.46 13.46h110.072v-37.18z" fill="url(#SVGID_00000064315328046972319030000007584910293143961255_)"/><path d="m210.906 22.901h-37.331c-7.434 0-13.46 6.026-13.46 13.46v30.272c0 7.434 6.026 13.46 13.46 13.46h37.331z" fill="url(#SVGID_00000079445989157869518250000002986352157383831219_)"/><path d="m302.22 100.06 44.071-40.392c4.793-4.393 4.793-11.949 0-16.342l-22.286-20.425h-40.358v57.193 11.795c0 9.644 11.463 14.687 18.573 8.171z" fill="url(#SVGID_00000118394730715094345140000008164009222958072749_)"/><path d="m302.22 100.06 20.397-18.694v-59.738l-20.397-18.693c-7.109-6.516-18.572-1.473-18.573 8.17v68.989 11.795c0 9.644 11.463 14.687 18.573 8.171z" fill="url(#SVGID_00000168834190598468248090000000899006888028890762_)"/></g><g><path d="m497.5 510h-485c-6.904 0-12.5-5.596-12.5-12.5v-37.5c0-25.957 21.043-47 47-47h416c25.957 0 47 21.043 47 47v37.5c0 6.904-5.596 12.5-12.5 12.5z" fill="url(#SVGID_00000153686459739721179240000002832966312027438479_)"/><path d="m510 460v37.5c0 6.9-5.6 12.5-12.5 12.5h-388.17l-88.83-88.83c7.54-5.15 16.67-8.17 26.5-8.17h416c25.96 0 47 21.04 47 47z" fill="url(#SVGID_00000058576063156347902980000000616323577311328642_)"/><path d="m0 460v37.5c0 6.904 5.596 12.5 12.5 12.5h485c6.904 0 12.5-5.596 12.5-12.5v-37.5c0-6.764-1.44-13.189-4.012-19h-501.976c-2.572 5.811-4.012 12.236-4.012 19z" fill="url(#SVGID_00000045585319741577859330000000639353379396256413_)"/><path d="m463 413h-94.333v97h128.833c6.904 0 12.5-5.596 12.5-12.5v-37.5c0-25.957-21.043-47-47-47z" fill="url(#SVGID_00000157992889084658206930000015509261996655091370_)"/><g><g><path d="m451.285 436.504h-392.57c-32.427 0-58.715-26.288-58.715-58.715 0-32.427 26.288-58.715 58.715-58.715h392.57c32.427 0 58.715 26.288 58.715 58.715 0 32.427-26.288 58.715-58.715 58.715z" fill="url(#SVGID_00000089568519396875803620000005581622157500378254_)"/><path d="m0 377.789c0 32.427 26.288 58.715 58.715 58.715h392.57c32.427 0 58.715-26.288 58.715-58.715 0-4.928-.615-9.711-1.759-14.285h-506.482c-1.144 4.573-1.759 9.357-1.759 14.285z" fill="url(#SVGID_00000113349396993129518330000009260765544627509145_)"/><path d="m451.285 319.074h-127.285v117.43h127.285c32.427 0 58.715-26.288 58.715-58.715 0-32.428-26.288-58.715-58.715-58.715z" fill="url(#SVGID_00000121276135606673761550000006522676188318761892_)"/></g><path d="m58.715 411.504c-18.59 0-33.715-15.124-33.715-33.715s15.125-33.715 33.715-33.715h392.57c18.59 0 33.715 15.124 33.715 33.715s-15.125 33.715-33.715 33.715z" fill="url(#SVGID_00000024720024670069974900000003327891351805362878_)"/><g><g><circle cx="59" cy="377.789" fill="url(#SVGID_00000123408333276405105320000006087476544658610855_)" r="28"/><circle cx="59" cy="377.789" fill="url(#SVGID_00000037650947100880949720000004320683356244945301_)" r="18.5"/></g><g><circle cx="115" cy="377.789" fill="url(#SVGID_00000098222700540522454180000001921655025298930569_)" r="28"/><circle cx="115" cy="377.789" fill="url(#SVGID_00000059286159406368123000000013841778347040692865_)" r="18.5"/></g><g><circle cx="171" cy="377.789" fill="url(#SVGID_00000085250667701894042960000008272002830206287270_)" r="28"/><circle cx="171" cy="377.789" fill="url(#SVGID_00000054971102656778631160000000284163982145594815_)" r="18.5"/></g><g><circle cx="227" cy="377.789" fill="url(#SVGID_00000124155637030994114790000005089031196743629723_)" r="28"/><circle cx="227" cy="377.789" fill="url(#SVGID_00000004509545376430583720000003027501446005554823_)" r="18.5"/></g><g><circle cx="283" cy="377.789" fill="url(#SVGID_00000140737165119832678120000003194290358111017609_)" r="28"/><circle cx="283" cy="377.789" fill="url(#SVGID_00000078012791176940642970000009970702371557257660_)" r="18.5"/></g><g><circle cx="339" cy="377.789" fill="url(#SVGID_00000011713153519750126240000001056436978961916075_)" r="28"/><circle cx="339" cy="377.789" fill="url(#SVGID_00000111895342553889348260000018263160929024339120_)" r="18.5"/></g><g><circle cx="395" cy="377.789" fill="url(#SVGID_00000112621173970300722220000006477229559542549918_)" r="28"/><circle cx="395" cy="377.789" fill="url(#SVGID_00000077306753177695894840000005971159663405878437_)" r="18.5"/></g><g><circle cx="451" cy="377.789" fill="url(#SVGID_00000130619632689230944690000009846175483863355020_)" r="28"/><circle cx="451" cy="377.789" fill="url(#SVGID_00000168076224733445297670000017564551497402410679_)" r="18.5"/></g></g></g></g></g></svg>