<svg id="Capa_1" enable-background="new 0 0 510 510" height="512" viewBox="0 0 510 510" width="512" xmlns="http://www.w3.org/2000/svg" xmlns:xlink="http://www.w3.org/1999/xlink"><linearGradient id="lg1"><stop offset="0" stop-color="#f9f7f8"/><stop offset="1" stop-color="#e5e1e5"/></linearGradient><linearGradient id="SVGID_1_" gradientUnits="userSpaceOnUse" x1="75.771" x2="363.687" xlink:href="#lg1" y1="144.675" y2="357.984"/><linearGradient id="lg2"><stop offset="0" stop-color="#9b8e99" stop-opacity="0"/><stop offset=".3465" stop-color="#978a95" stop-opacity=".347"/><stop offset=".7135" stop-color="#8a7f88" stop-opacity=".714"/><stop offset="1" stop-color="#7b7179"/></linearGradient><linearGradient id="SVGID_00000047050046633808062500000012255798632492240534_" gradientUnits="userSpaceOnUse" x1="318.07" x2="392.32" xlink:href="#lg2" y1="255" y2="255"/><linearGradient id="SVGID_00000114758427818538002960000001216119480672862893_" gradientUnits="userSpaceOnUse" x1="359.819" x2="295.815" xlink:href="#lg2" y1="187.278" y2="187.278"/><linearGradient id="SVGID_00000045600111613647539300000004364470763748134838_" gradientUnits="userSpaceOnUse" x1="197.207" x2="197.207" xlink:href="#lg2" y1="460" y2="516.009"/><linearGradient id="SVGID_00000099661280603414086780000017235963219982194843_" gradientUnits="userSpaceOnUse" x1="186.814" x2="114.147" xlink:href="#lg2" y1="466.985" y2="462.319"/><linearGradient id="SVGID_00000021801222676410228880000004659270044205556865_" gradientUnits="userSpaceOnUse" x1="108.328" x2="82.328" xlink:href="#lg1" y1="438.904" y2="480.238"/><linearGradient id="SVGID_00000152244839643761066350000003656156057124042916_" gradientUnits="userSpaceOnUse" x1="266.82" x2="268.153" xlink:href="#lg2" y1="487.444" y2="394.777"/><linearGradient id="SVGID_00000021099870293228565260000012132091826349779110_" gradientUnits="userSpaceOnUse" x1="413.54" x2="413.54" y1="239.094" y2="331.864"><stop offset="0" stop-color="#fef0ae"/><stop offset="1" stop-color="#fac600"/></linearGradient><linearGradient id="SVGID_00000156589374465246848000000009251660377210552705_" gradientUnits="userSpaceOnUse" x1="415.754" x2="387.422" y1="273.673" y2="313.515"><stop offset="0" stop-color="#fea613" stop-opacity="0"/><stop offset=".2032" stop-color="#fda215" stop-opacity=".203"/><stop offset=".4052" stop-color="#fb961b" stop-opacity=".405"/><stop offset=".6066" stop-color="#f68225" stop-opacity=".607"/><stop offset=".8066" stop-color="#f06633" stop-opacity=".807"/><stop offset="1" stop-color="#e94444"/></linearGradient><linearGradient id="SVGID_00000004540865315921240990000016632465802035814041_" gradientUnits="userSpaceOnUse" x1="351.804" x2="402.271" y1="111.636" y2="187.779"><stop offset="0" stop-color="#d5daf3"/><stop offset="1" stop-color="#60b7ff"/></linearGradient><linearGradient id="lg3"><stop offset="0" stop-color="#528fd8" stop-opacity="0"/><stop offset=".214" stop-color="#4e8dd7" stop-opacity=".214"/><stop offset=".4386" stop-color="#4187d5" stop-opacity=".439"/><stop offset=".6681" stop-color="#2c7dd0" stop-opacity=".668"/><stop offset=".8995" stop-color="#0f6fc9" stop-opacity=".9"/><stop offset="1" stop-color="#0067c5"/></linearGradient><linearGradient id="SVGID_00000071559175000221709550000008983944409306547100_" gradientUnits="userSpaceOnUse" x1="423.066" x2="470.877" xlink:href="#lg3" y1="134.368" y2="122.858"/><linearGradient id="SVGID_00000042694178408574292720000015987767598657227137_" gradientUnits="userSpaceOnUse" x1="401.872" x2="401.872" xlink:href="#lg3" y1="181.102" y2="215.734"/><linearGradient id="SVGID_00000083788740051324424930000005050224372232973724_" gradientUnits="userSpaceOnUse" x1="171.728" x2="371.485" y1="150.404" y2="350.162"><stop offset="0" stop-color="#d9b1ee"/><stop offset=".1228" stop-color="#dba3e3"/><stop offset=".3507" stop-color="#e381c8"/><stop offset=".6587" stop-color="#ef499b"/><stop offset="1" stop-color="#fe0364"/></linearGradient><linearGradient id="SVGID_00000151543378091431620670000016938255052738607016_" gradientUnits="userSpaceOnUse" x1="265.736" x2="265.736" y1="325.009" y2="419.307"><stop offset="0" stop-color="#a82975" stop-opacity="0"/><stop offset="1" stop-color="#a82975"/></linearGradient><g><g><g><path d="m351.228 510h-226.001c-56.333 0-102-45.667-102-102v-388.041c0-11.023 8.936-19.959 19.96-19.959h308.041c11.023 0 19.959 8.936 19.959 19.959v470.081c0 11.024-8.936 19.96-19.959 19.96z" fill="url(#SVGID_1_)"/><path d="m351.228 0h-177.082v510h177.082c11.023 0 19.959-8.936 19.959-19.959v-470.082c.001-11.023-8.936-19.959-19.959-19.959z" fill="url(#SVGID_00000047050046633808062500000012255798632492240534_)"/><path d="m371.188 122.556-75.077-75.077v204.521l75.077 75.077z" fill="url(#SVGID_00000114758427818538002960000001216119480672862893_)"/><path d="m23.227 326.667v81.333c0 56.333 45.667 102 102 102h226.001c11.023 0 19.959-8.936 19.959-19.959v-163.374z" fill="url(#SVGID_00000045600111613647539300000004364470763748134838_)"/><path d="m120.331 415.551v94.33c1.623.077 3.254.119 4.896.119h89.553z" fill="url(#SVGID_00000099661280603414086780000017235963219982194843_)"/><path d="m125.227 467.081c0 23.703 19.215 42.919 42.919 42.919h-42.919c-56.333 0-102-45.667-102-102h80.959c11.62 0 21.041 9.42 21.041 21.041z" fill="url(#SVGID_00000021801222676410228880000004659270044205556865_)"/></g></g><path d="m371.188 490.041v-119.978h-207.086l139.937 139.937h47.189c11.023 0 19.96-8.936 19.96-19.959z" fill="url(#SVGID_00000152244839643761066350000003656156057124042916_)"/><g><path d="m469.008 249.273h-114.293c-8.267 0-12.408 9.996-6.562 15.842l80.816 80.816c5.241 5.242 13.88 4.9 18.623-.797 18.873-22.671 31.184-50.996 34.019-82.061.675-7.409-5.164-13.8-12.603-13.8z" fill="url(#SVGID_00000021099870293228565260000012132091826349779110_)"/><path d="m469.008 249.273h-114.293c-8.267 0-12.408 9.996-6.562 15.842l80.816 80.816c5.241 5.242 13.88 4.9 18.623-.797 18.873-22.671 31.184-50.996 34.019-82.061.675-7.409-5.164-13.8-12.603-13.8z" fill="url(#SVGID_00000156589374465246848000000009251660377210552705_)"/><g><path d="m316.973 55.565v149.329c0 6.84 5.545 12.385 12.385 12.385h149.328c4.597 0 8.3-3.831 8.076-8.423-4.254-87.183-74.185-157.114-161.367-161.367-4.591-.225-8.422 3.479-8.422 8.076z" fill="url(#SVGID_00000004540865315921240990000016632465802035814041_)"/><path d="m360.467 52.904v164.374h118.22c4.597 0 8.3-3.831 8.076-8.423-3.665-75.118-56.091-137.423-126.296-155.951z" fill="url(#SVGID_00000071559175000221709550000008983944409306547100_)"/><path d="m329.358 217.278h149.329c4.606 0 8.3-3.848 8.075-8.448-1.504-30.731-11.177-59.311-26.88-83.632h-142.909v79.695c0 6.84 5.545 12.385 12.385 12.385z" fill="url(#SVGID_00000042694178408574292720000015987767598657227137_)"/></g><g><path d="m414.105 387.922c-32.781 24.664-73.747 39.034-118.09 38.302-105.122-1.734-189.51-88.905-187.994-194.03 1.448-100.373 80.228-182.035 179.427-188.072 6.391-.389 11.796 4.677 11.796 11.08v179.805l117.226 117.226c10.164 10.164 9.121 27.047-2.365 35.689z" fill="url(#SVGID_00000083788740051324424930000005050224372232973724_)"/><path d="m296.015 426.224c44.344.732 85.309-13.638 118.09-38.302 11.486-8.642 12.528-25.525 2.364-35.689l-117.225-117.225h-191.228c.016 103.861 83.817 189.497 187.999 191.216z" fill="url(#SVGID_00000151543378091431620670000016938255052738607016_)"/></g></g></g></svg>